# authored Havenline T08 transfer-feedback mesh
s 1
v 0.31000000 -0.02750000 0.00000000
v 0.23558928 -0.02750000 0.09758428
v 0.21920310 -0.02750000 0.21920310
v 0.09758428 -0.02750000 0.23558928
v 0.00000000 -0.02750000 0.31000000
v -0.09758428 -0.02750000 0.23558928
v -0.21920310 -0.02750000 0.21920310
v -0.23558928 -0.02750000 0.09758428
v -0.31000000 -0.02750000 0.00000000
v -0.23558928 -0.02750000 -0.09758428
v -0.21920310 -0.02750000 -0.21920310
v -0.09758428 -0.02750000 -0.23558928
v -0.00000000 -0.02750000 -0.31000000
v 0.09758428 -0.02750000 -0.23558928
v 0.21920310 -0.02750000 -0.21920310
v 0.23558928 -0.02750000 -0.09758428
v 0.17000000 -0.02750000 0.00000000
v 0.17091771 -0.02750000 0.07079643
v 0.12020815 -0.02750000 0.12020815
v 0.07079643 -0.02750000 0.17091771
v 0.00000000 -0.02750000 0.17000000
v -0.07079643 -0.02750000 0.17091771
v -0.12020815 -0.02750000 0.12020815
v -0.17091771 -0.02750000 0.07079643
v -0.17000000 -0.02750000 0.00000000
v -0.17091771 -0.02750000 -0.07079643
v -0.12020815 -0.02750000 -0.12020815
v -0.07079643 -0.02750000 -0.17091771
v -0.00000000 -0.02750000 -0.17000000
v 0.07079643 -0.02750000 -0.17091771
v 0.12020815 -0.02750000 -0.12020815
v 0.17091771 -0.02750000 -0.07079643
v 0.31000000 0.02750000 0.00000000
v 0.23558928 0.02750000 0.09758428
v 0.21920310 0.02750000 0.21920310
v 0.09758428 0.02750000 0.23558928
v 0.00000000 0.02750000 0.31000000
v -0.09758428 0.02750000 0.23558928
v -0.21920310 0.02750000 0.21920310
v -0.23558928 0.02750000 0.09758428
v -0.31000000 0.02750000 0.00000000
v -0.23558928 0.02750000 -0.09758428
v -0.21920310 0.02750000 -0.21920310
v -0.09758428 0.02750000 -0.23558928
v -0.00000000 0.02750000 -0.31000000
v 0.09758428 0.02750000 -0.23558928
v 0.21920310 0.02750000 -0.21920310
v 0.23558928 0.02750000 -0.09758428
v 0.17000000 0.02750000 0.00000000
v 0.17091771 0.02750000 0.07079643
v 0.12020815 0.02750000 0.12020815
v 0.07079643 0.02750000 0.17091771
v 0.00000000 0.02750000 0.17000000
v -0.07079643 0.02750000 0.17091771
v -0.12020815 0.02750000 0.12020815
v -0.17091771 0.02750000 0.07079643
v -0.17000000 0.02750000 0.00000000
v -0.17091771 0.02750000 -0.07079643
v -0.12020815 0.02750000 -0.12020815
v -0.07079643 0.02750000 -0.17091771
v -0.00000000 0.02750000 -0.17000000
v 0.07079643 0.02750000 -0.17091771
v 0.12020815 0.02750000 -0.12020815
v 0.17091771 0.02750000 -0.07079643
f 33 34 50
f 33 50 49
f 1 18 2
f 1 17 18
f 1 2 34
f 1 34 33
f 17 50 18
f 17 49 50
f 34 35 51
f 34 51 50
f 2 19 3
f 2 18 19
f 2 3 35
f 2 35 34
f 18 51 19
f 18 50 51
f 35 36 52
f 35 52 51
f 3 20 4
f 3 19 20
f 3 4 36
f 3 36 35
f 19 52 20
f 19 51 52
f 36 37 53
f 36 53 52
f 4 21 5
f 4 20 21
f 4 5 37
f 4 37 36
f 20 53 21
f 20 52 53
f 37 38 54
f 37 54 53
f 5 22 6
f 5 21 22
f 5 6 38
f 5 38 37
f 21 54 22
f 21 53 54
f 38 39 55
f 38 55 54
f 6 23 7
f 6 22 23
f 6 7 39
f 6 39 38
f 22 55 23
f 22 54 55
f 39 40 56
f 39 56 55
f 7 24 8
f 7 23 24
f 7 8 40
f 7 40 39
f 23 56 24
f 23 55 56
f 40 41 57
f 40 57 56
f 8 25 9
f 8 24 25
f 8 9 41
f 8 41 40
f 24 57 25
f 24 56 57
f 41 42 58
f 41 58 57
f 9 26 10
f 9 25 26
f 9 10 42
f 9 42 41
f 25 58 26
f 25 57 58
f 42 43 59
f 42 59 58
f 10 27 11
f 10 26 27
f 10 11 43
f 10 43 42
f 26 59 27
f 26 58 59
f 43 44 60
f 43 60 59
f 11 28 12
f 11 27 28
f 11 12 44
f 11 44 43
f 27 60 28
f 27 59 60
f 44 45 61
f 44 61 60
f 12 29 13
f 12 28 29
f 12 13 45
f 12 45 44
f 28 61 29
f 28 60 61
f 45 46 62
f 45 62 61
f 13 30 14
f 13 29 30
f 13 14 46
f 13 46 45
f 29 62 30
f 29 61 62
f 46 47 63
f 46 63 62
f 14 31 15
f 14 30 31
f 14 15 47
f 14 47 46
f 30 63 31
f 30 62 63
f 47 48 64
f 47 64 63
f 15 32 16
f 15 31 32
f 15 16 48
f 15 48 47
f 31 64 32
f 31 63 64
f 48 33 49
f 48 49 64
f 16 17 1
f 16 32 17
f 16 1 33
f 16 33 48
f 32 49 17
f 32 64 49
