# authored Havenline T08 transfer-feedback mesh
s 1
v -0.14500000 -0.15000000 -0.02750000
v -0.06000000 0.01500000 -0.02750000
v 0.00000000 0.29000000 -0.02750000
v 0.06000000 0.01500000 -0.02750000
v 0.14500000 -0.15000000 -0.02750000
v 0.00000000 -0.06500000 -0.02750000
v -0.14500000 -0.15000000 0.02750000
v -0.06000000 0.01500000 0.02750000
v 0.00000000 0.29000000 0.02750000
v 0.06000000 0.01500000 0.02750000
v 0.14500000 -0.15000000 0.02750000
v 0.00000000 -0.06500000 0.02750000
f 7 8 9
f 1 3 2
f 7 9 10
f 1 4 3
f 7 10 11
f 1 5 4
f 7 11 12
f 1 6 5
f 1 2 8
f 1 8 7
f 2 3 9
f 2 9 8
f 3 4 10
f 3 10 9
f 4 5 11
f 4 11 10
f 5 6 12
f 5 12 11
f 6 1 7
f 6 7 12
