# authored Havenline T08 transfer-feedback mesh
s 1
v -0.04599209 -0.14000000 -0.00603680
v 0.00475458 -0.14000000 -0.01738474
v 0.00999209 -0.14000000 0.00603680
v -0.04075458 -0.14000000 0.01738474
v -0.06748631 -0.07000000 -0.01613795
v 0.05212989 -0.07000000 -0.02572772
v 0.05548631 -0.07000000 0.01613795
v -0.06412989 -0.07000000 0.02572772
v -0.07604536 0.00000000 -0.04427409
v 0.10560446 0.00000000 -0.01495954
v 0.09604536 0.00000000 0.04427409
v -0.08560446 0.00000000 0.01495954
v -0.04159543 0.07000000 -0.04022622
v 0.08259832 0.07000000 -0.00180859
v 0.06959543 0.07000000 0.04022622
v -0.05459832 0.07000000 0.00180859
v -0.01691174 0.14000000 -0.01174704
v 0.01890841 0.14000000 -0.00815304
v 0.01691174 0.14000000 0.01174704
v -0.01890841 0.14000000 0.00815304
f 1 2 6
f 1 6 5
f 2 3 7
f 2 7 6
f 3 4 8
f 3 8 7
f 4 1 5
f 4 5 8
f 5 6 10
f 5 10 9
f 6 7 11
f 6 11 10
f 7 8 12
f 7 12 11
f 8 5 9
f 8 9 12
f 9 10 14
f 9 14 13
f 10 11 15
f 10 15 14
f 11 12 16
f 11 16 15
f 12 9 13
f 12 13 16
f 13 14 18
f 13 18 17
f 14 15 19
f 14 19 18
f 15 16 20
f 15 20 19
f 16 13 17
f 16 17 20
f 1 3 2
f 1 4 3
f 17 18 19
f 17 19 20
