mtllib camp_canopy.mtl
s off
o post_0
usemtl Timber
v -2.2200 0.0000 -1.1200
v -1.9800 0.0000 -1.1200
v -1.9800 2.6000 -1.1200
v -2.2200 2.6000 -1.1200
v -2.2200 0.0000 -0.8800
v -1.9800 0.0000 -0.8800
v -1.9800 2.6000 -0.8800
v -2.2200 2.6000 -0.8800
f 1 2 3 4
f 5 8 7 6
f 1 5 6 2
f 4 3 7 8
f 2 6 7 3
f 1 4 8 5
o post_1
usemtl Timber
v 1.9800 0.0000 -1.1200
v 2.2200 0.0000 -1.1200
v 2.2200 2.6000 -1.1200
v 1.9800 2.6000 -1.1200
v 1.9800 0.0000 -0.8800
v 2.2200 0.0000 -0.8800
v 2.2200 2.6000 -0.8800
v 1.9800 2.6000 -0.8800
f 9 10 11 12
f 13 16 15 14
f 9 13 14 10
f 12 11 15 16
f 10 14 15 11
f 9 12 16 13
o post_2
usemtl Timber
v -2.2200 0.0000 0.8800
v -1.9800 0.0000 0.8800
v -1.9800 2.6000 0.8800
v -2.2200 2.6000 0.8800
v -2.2200 0.0000 1.1200
v -1.9800 0.0000 1.1200
v -1.9800 2.6000 1.1200
v -2.2200 2.6000 1.1200
f 17 18 19 20
f 21 24 23 22
f 17 21 22 18
f 20 19 23 24
f 18 22 23 19
f 17 20 24 21
o post_3
usemtl Timber
v 1.9800 0.0000 0.8800
v 2.2200 0.0000 0.8800
v 2.2200 2.6000 0.8800
v 1.9800 2.6000 0.8800
v 1.9800 0.0000 1.1200
v 2.2200 0.0000 1.1200
v 2.2200 2.6000 1.1200
v 1.9800 2.6000 1.1200
f 25 26 27 28
f 29 32 31 30
f 25 29 30 26
f 28 27 31 32
f 26 30 31 27
f 25 28 32 29
o beam_front
usemtl DarkTimber
v -2.3000 2.4400 -1.1100
v 2.3000 2.4400 -1.1100
v 2.3000 2.6600 -1.1100
v -2.3000 2.6600 -1.1100
v -2.3000 2.4400 -0.8900
v 2.3000 2.4400 -0.8900
v 2.3000 2.6600 -0.8900
v -2.3000 2.6600 -0.8900
f 33 34 35 36
f 37 40 39 38
f 33 37 38 34
f 36 35 39 40
f 34 38 39 35
f 33 36 40 37
o beam_back
usemtl DarkTimber
v -2.3000 2.4400 0.8900
v 2.3000 2.4400 0.8900
v 2.3000 2.6600 0.8900
v -2.3000 2.6600 0.8900
v -2.3000 2.4400 1.1100
v 2.3000 2.4400 1.1100
v 2.3000 2.6600 1.1100
v -2.3000 2.6600 1.1100
f 41 42 43 44
f 45 48 47 46
f 41 45 46 42
f 44 43 47 48
f 42 46 47 43
f 41 44 48 45
o beam_left
usemtl DarkTimber
v -2.2100 2.4400 -1.1000
v -1.9900 2.4400 -1.1000
v -1.9900 2.6600 -1.1000
v -2.2100 2.6600 -1.1000
v -2.2100 2.4400 1.1000
v -1.9900 2.4400 1.1000
v -1.9900 2.6600 1.1000
v -2.2100 2.6600 1.1000
f 49 50 51 52
f 53 56 55 54
f 49 53 54 50
f 52 51 55 56
f 50 54 55 51
f 49 52 56 53
o beam_right
usemtl DarkTimber
v 1.9900 2.4400 -1.1000
v 2.2100 2.4400 -1.1000
v 2.2100 2.6600 -1.1000
v 1.9900 2.6600 -1.1000
v 1.9900 2.4400 1.1000
v 2.2100 2.4400 1.1000
v 2.2100 2.6600 1.1000
v 1.9900 2.6600 1.1000
f 57 58 59 60
f 61 64 63 62
f 57 61 62 58
f 60 59 63 64
f 58 62 63 59
f 57 60 64 61
o rail_front
usemtl Timber
v -2.1750 1.2800 -1.0700
v 2.1750 1.2800 -1.0700
v 2.1750 1.4200 -1.0700
v -2.1750 1.4200 -1.0700
v -2.1750 1.2800 -0.9300
v 2.1750 1.2800 -0.9300
v 2.1750 1.4200 -0.9300
v -2.1750 1.4200 -0.9300
f 65 66 67 68
f 69 72 71 70
f 65 69 70 66
f 68 67 71 72
f 66 70 71 67
f 65 68 72 69
o rail_back
usemtl Timber
v -2.1750 1.2800 0.9300
v 2.1750 1.2800 0.9300
v 2.1750 1.4200 0.9300
v -2.1750 1.4200 0.9300
v -2.1750 1.2800 1.0700
v 2.1750 1.2800 1.0700
v 2.1750 1.4200 1.0700
v -2.1750 1.4200 1.0700
f 73 74 75 76
f 77 80 79 78
f 73 77 78 74
f 76 75 79 80
f 74 78 79 75
f 73 76 80 77
o roof_front
usemtl RoofBlue
v -2.4500 2.6200 -1.2500
v 2.4500 2.6200 -1.2500
v 2.4500 3.1500 0.0000
v -2.4500 3.1500 0.0000
f 84 83 82 81
o roof_back
usemtl RoofBlue
v -2.4500 3.1500 0.0000
v 2.4500 3.1500 0.0000
v 2.4500 2.6200 1.2500
v -2.4500 2.6200 1.2500
f 88 87 86 85
o ridge_cap
usemtl MetalAccent
v -2.4750 3.1000 -0.0800
v 2.4750 3.1000 -0.0800
v 2.4750 3.2200 -0.0800
v -2.4750 3.2200 -0.0800
v -2.4750 3.1000 0.0800
v 2.4750 3.1000 0.0800
v 2.4750 3.2200 0.0800
v -2.4750 3.2200 0.0800
f 89 90 91 92
f 93 96 95 94
f 89 93 94 90
f 92 91 95 96
f 90 94 95 91
f 89 92 96 93
