# HAVENLINE supplied-reference T03 sculpted visual candidate
mtllib boundary_v2.mtl
o gate_post
s 1
usemtl timber
v 0.177233 0.000000 0.000000 1.000000 1.000000 1.000000
v 0.152804 0.000000 0.088221 1.000000 1.000000 1.000000
v 0.088403 0.000000 0.153118 1.000000 1.000000 1.000000
v 0.000000 0.000000 0.184782 1.000000 1.000000 1.000000
v -0.085016 0.000000 0.147251 1.000000 1.000000 1.000000
v -0.155701 0.000000 0.089894 1.000000 1.000000 1.000000
v -0.178211 0.000000 0.000000 1.000000 1.000000 1.000000
v -0.155020 0.000000 -0.089501 1.000000 1.000000 1.000000
v -0.089319 0.000000 -0.154705 1.000000 1.000000 1.000000
v 0.000000 0.000000 -0.170661 1.000000 1.000000 1.000000
v 0.092706 0.000000 -0.160572 1.000000 1.000000 1.000000
v 0.152122 0.000000 -0.087827 1.000000 1.000000 1.000000
v 0.176594 0.348145 0.000000 1.000000 1.000000 1.000000
v 0.155421 0.348145 0.089733 1.000000 1.000000 1.000000
v 0.088722 0.348145 0.153671 1.000000 1.000000 1.000000
v 0.000000 0.348145 0.181759 1.000000 1.000000 1.000000
v -0.084696 0.348145 0.146698 1.000000 1.000000 1.000000
v -0.158319 0.348145 0.091406 1.000000 1.000000 1.000000
v -0.178850 0.348145 0.000000 1.000000 1.000000 1.000000
v -0.152402 0.348145 -0.087989 1.000000 1.000000 1.000000
v -0.089000 0.348145 -0.154152 1.000000 1.000000 1.000000
v 0.000000 0.348145 -0.173684 1.000000 1.000000 1.000000
v 0.093026 0.348145 -0.161125 1.000000 1.000000 1.000000
v 0.149504 0.348145 -0.086316 1.000000 1.000000 1.000000
v 0.178809 0.696289 0.000000 1.000000 1.000000 1.000000
v 0.157286 0.696289 0.090809 1.000000 1.000000 1.000000
v 0.087614 0.696289 0.151753 1.000000 1.000000 1.000000
v 0.000000 0.696289 0.179606 1.000000 1.000000 1.000000
v -0.085804 0.696289 0.148617 1.000000 1.000000 1.000000
v -0.160184 0.696289 0.092483 1.000000 1.000000 1.000000
v -0.176634 0.696289 0.000000 1.000000 1.000000 1.000000
v -0.150537 0.696289 -0.086912 1.000000 1.000000 1.000000
v -0.090107 0.696289 -0.156071 1.000000 1.000000 1.000000
v 0.000000 0.696289 -0.175838 1.000000 1.000000 1.000000
v 0.091918 0.696289 -0.159207 1.000000 1.000000 1.000000
v 0.147639 0.696289 -0.085239 1.000000 1.000000 1.000000
v 0.181813 1.044434 0.000000 1.000000 1.000000 1.000000
v 0.156659 1.044434 0.090447 1.000000 1.000000 1.000000
v 0.086113 1.044434 0.149151 1.000000 1.000000 1.000000
v 0.000000 1.044434 0.180330 1.000000 1.000000 1.000000
v -0.087306 1.044434 0.151218 1.000000 1.000000 1.000000
v -0.159557 1.044434 0.092120 1.000000 1.000000 1.000000
v -0.173631 1.044434 0.000000 1.000000 1.000000 1.000000
v -0.151164 1.044434 -0.087275 1.000000 1.000000 1.000000
v -0.091609 1.044434 -0.158672 1.000000 1.000000 1.000000
v 0.000000 1.044434 -0.175113 1.000000 1.000000 1.000000
v 0.090416 1.044434 -0.156605 1.000000 1.000000 1.000000
v 0.148266 1.044434 -0.085602 1.000000 1.000000 1.000000
v 0.182802 1.392578 0.000000 1.000000 1.000000 1.000000
v 0.154124 1.392578 0.088983 1.000000 1.000000 1.000000
v 0.085618 1.392578 0.148295 1.000000 1.000000 1.000000
v 0.000000 1.392578 0.183258 1.000000 1.000000 1.000000
v -0.087800 1.392578 0.152075 1.000000 1.000000 1.000000
v -0.157022 1.392578 0.090657 1.000000 1.000000 1.000000
v -0.172641 1.392578 0.000000 1.000000 1.000000 1.000000
v -0.153699 1.392578 -0.088738 1.000000 1.000000 1.000000
v -0.092104 1.392578 -0.159529 1.000000 1.000000 1.000000
v 0.000000 1.392578 -0.172186 1.000000 1.000000 1.000000
v 0.089921 1.392578 -0.155748 1.000000 1.000000 1.000000
v 0.150801 1.392578 -0.087065 1.000000 1.000000 1.000000
v 0.180854 1.740723 0.000000 1.000000 1.000000 1.000000
v 0.152047 1.740723 0.087784 1.000000 1.000000 1.000000
v 0.086592 1.740723 0.149981 1.000000 1.000000 1.000000
v 0.000000 1.740723 0.185656 1.000000 1.000000 1.000000
v -0.086826 1.740723 0.150388 1.000000 1.000000 1.000000
v -0.154944 1.740723 0.089457 1.000000 1.000000 1.000000
v -0.174589 1.740723 0.000000 1.000000 1.000000 1.000000
v -0.155777 1.740723 -0.089938 1.000000 1.000000 1.000000
v -0.091130 1.740723 -0.157842 1.000000 1.000000 1.000000
v 0.000000 1.740723 -0.169787 1.000000 1.000000 1.000000
v 0.090895 1.740723 -0.157435 1.000000 1.000000 1.000000
v 0.152879 1.740723 -0.088265 1.000000 1.000000 1.000000
v 0.000000 0.000000 0.000000 1.000000 1.000000 1.000000
v 0.000000 2.150000 0.000000 1.000000 1.000000 1.000000
vt 1.000000 0.692000
vt 1.166667 0.692000
vt 1.333333 0.692000
vt 1.500000 0.692000
vt 1.666667 0.692000
vt 1.833333 0.692000
vt 2.000000 0.692000
vt 0.166667 0.692000
vt 0.333333 0.692000
vt 0.500000 0.692000
vt 0.666667 0.692000
vt 0.833333 0.692000
vt 1.000000 1.103765
vt 1.166667 1.103765
vt 1.333333 1.103765
vt 1.500000 1.103765
vt 1.666667 1.103765
vt 1.833333 1.103765
vt 2.000000 1.103765
vt 0.166667 1.103765
vt 0.333333 1.103765
vt 0.500000 1.103765
vt 0.666667 1.103765
vt 0.833333 1.103765
vt 1.000000 1.515529
vt 1.166667 1.515529
vt 1.333333 1.515529
vt 1.500000 1.515529
vt 1.666667 1.515529
vt 1.833333 1.515529
vt 2.000000 1.515529
vt 0.166667 1.515529
vt 0.333333 1.515529
vt 0.500000 1.515529
vt 0.666667 1.515529
vt 0.833333 1.515529
vt 1.000000 1.927294
vt 1.166667 1.927294
vt 1.333333 1.927294
vt 1.500000 1.927294
vt 1.666667 1.927294
vt 1.833333 1.927294
vt 2.000000 1.927294
vt 0.166667 1.927294
vt 0.333333 1.927294
vt 0.500000 1.927294
vt 0.666667 1.927294
vt 0.833333 1.927294
vt 1.000000 2.339059
vt 1.166667 2.339059
vt 1.333333 2.339059
vt 1.500000 2.339059
vt 1.666667 2.339059
vt 1.833333 2.339059
vt 2.000000 2.339059
vt 0.166667 2.339059
vt 0.333333 2.339059
vt 0.500000 2.339059
vt 0.666667 2.339059
vt 0.833333 2.339059
vt 1.000000 2.750824
vt 1.166667 2.750824
vt 1.333333 2.750824
vt 1.500000 2.750824
vt 1.666667 2.750824
vt 1.833333 2.750824
vt 2.000000 2.750824
vt 0.166667 2.750824
vt 0.333333 2.750824
vt 0.500000 2.750824
vt 0.666667 2.750824
vt 0.833333 2.750824
vt 1.000000 0.692000
vt 1.000000 3.234892
vn 0.944583 -0.320093 0.072822
vn 0.769047 -0.323895 0.551052
vn 0.434749 -0.318384 0.842392
vn -0.148009 -0.326813 0.933428
vn -0.520839 -0.310144 0.795322
vn -0.852993 -0.327388 0.406472
vn -0.941931 -0.321920 -0.095573
vn -0.780491 -0.318134 -0.538167
vn -0.360972 -0.323213 -0.874776
vn 0.023095 -0.313924 -0.949167
vn 0.568922 -0.331045 -0.752819
vn 0.864984 -0.314453 -0.391053
vn 0.999577 -0.001094 -0.029049
vn 0.860847 -0.003568 0.508851
vn 0.513251 0.001098 0.858238
vn -0.025463 0.003525 0.999670
vn -0.499362 -0.001125 0.866393
vn -0.849349 -0.003517 0.527819
vn -0.999585 0.001092 -0.028786
vn -0.871047 0.003610 -0.491186
vn -0.486320 -0.001088 -0.873780
vn -0.024332 -0.003649 -0.999697
vn 0.500678 0.001060 -0.865633
vn 0.881128 0.003655 -0.472864
vn 0.999189 -0.003597 -0.040113
vn 0.855027 -0.000978 0.518583
vn 0.503963 0.003658 0.863718
vn -0.013954 0.000979 0.999902
vn -0.490140 -0.003702 0.871636
vn -0.855303 -0.000965 0.518128
vn -0.999214 0.003635 -0.039471
vn -0.876437 0.001002 -0.481516
vn -0.495899 -0.003579 -0.868373
vn -0.013426 -0.001001 -0.999909
vn 0.510331 0.003532 -0.859971
vn 0.875865 0.001015 -0.482555
vn 0.999326 -0.002728 -0.036600
vn 0.847006 0.002505 0.531578
vn 0.507048 0.002822 0.861913
vn 0.001537 -0.002498 0.999996
vn -0.493218 -0.002809 0.869901
vn -0.863272 0.002472 0.504733
vn -0.999360 0.002805 -0.035674
vn -0.883599 -0.002556 -0.468237
vn -0.492630 -0.002714 -0.870235
vn 0.001475 0.002565 -0.999996
vn 0.507054 0.002727 -0.861910
vn 0.868620 -0.002590 -0.495472
vn 0.999765 0.000653 -0.021657
vn 0.844420 0.003684 0.535670
vn 0.519477 -0.000679 0.854484
vn 0.006678 -0.003612 0.999971
vn -0.505775 0.000672 0.862665
vn -0.865847 0.003636 0.500296
vn -0.999778 -0.000675 -0.021042
vn -0.885996 -0.003696 -0.463679
vn -0.479404 0.000649 -0.877594
vn 0.006351 0.003770 -0.999973
vn 0.493957 -0.000656 -0.869486
vn 0.866186 -0.003747 -0.499708
vn 0.979512 0.191306 -0.062909
vn 0.855970 0.187541 0.481813
vn 0.553923 0.181950 0.812443
vn 0.075775 0.191874 0.978490
vn -0.484145 0.183891 0.855446
vn -0.815612 0.191391 0.546028
vn -0.982479 0.182943 0.035606
vn -0.891181 0.186553 -0.413514
vn -0.511368 0.192138 -0.837607
vn -0.023708 0.182264 -0.982964
vn 0.409294 0.190222 -0.892353
vn 0.834052 0.182966 -0.520462
vn 0.000000 -1.000000 0.000000
vn 0.000000 1.000000 0.000000
f 1/1/1 14/14/14 2/2/2
f 1/1/1 13/13/13 14/14/14
f 2/2/2 15/15/15 3/3/3
f 2/2/2 14/14/14 15/15/15
f 3/3/3 16/16/16 4/4/4
f 3/3/3 15/15/15 16/16/16
f 4/4/4 17/17/17 5/5/5
f 4/4/4 16/16/16 17/17/17
f 5/5/5 18/18/18 6/6/6
f 5/5/5 17/17/17 18/18/18
f 6/6/6 19/19/19 7/7/7
f 6/6/6 18/18/18 19/19/19
f 7/7/7 20/20/20 8/8/8
f 7/7/7 19/19/19 20/20/20
f 8/8/8 21/21/21 9/9/9
f 8/8/8 20/20/20 21/21/21
f 9/9/9 22/22/22 10/10/10
f 9/9/9 21/21/21 22/22/22
f 10/10/10 23/23/23 11/11/11
f 10/10/10 22/22/22 23/23/23
f 11/11/11 24/24/24 12/12/12
f 11/11/11 23/23/23 24/24/24
f 12/12/12 13/13/13 1/1/1
f 12/12/12 24/24/24 13/13/13
f 13/13/13 26/26/26 14/14/14
f 13/13/13 25/25/25 26/26/26
f 14/14/14 27/27/27 15/15/15
f 14/14/14 26/26/26 27/27/27
f 15/15/15 28/28/28 16/16/16
f 15/15/15 27/27/27 28/28/28
f 16/16/16 29/29/29 17/17/17
f 16/16/16 28/28/28 29/29/29
f 17/17/17 30/30/30 18/18/18
f 17/17/17 29/29/29 30/30/30
f 18/18/18 31/31/31 19/19/19
f 18/18/18 30/30/30 31/31/31
f 19/19/19 32/32/32 20/20/20
f 19/19/19 31/31/31 32/32/32
f 20/20/20 33/33/33 21/21/21
f 20/20/20 32/32/32 33/33/33
f 21/21/21 34/34/34 22/22/22
f 21/21/21 33/33/33 34/34/34
f 22/22/22 35/35/35 23/23/23
f 22/22/22 34/34/34 35/35/35
f 23/23/23 36/36/36 24/24/24
f 23/23/23 35/35/35 36/36/36
f 24/24/24 25/25/25 13/13/13
f 24/24/24 36/36/36 25/25/25
f 25/25/25 38/38/38 26/26/26
f 25/25/25 37/37/37 38/38/38
f 26/26/26 39/39/39 27/27/27
f 26/26/26 38/38/38 39/39/39
f 27/27/27 40/40/40 28/28/28
f 27/27/27 39/39/39 40/40/40
f 28/28/28 41/41/41 29/29/29
f 28/28/28 40/40/40 41/41/41
f 29/29/29 42/42/42 30/30/30
f 29/29/29 41/41/41 42/42/42
f 30/30/30 43/43/43 31/31/31
f 30/30/30 42/42/42 43/43/43
f 31/31/31 44/44/44 32/32/32
f 31/31/31 43/43/43 44/44/44
f 32/32/32 45/45/45 33/33/33
f 32/32/32 44/44/44 45/45/45
f 33/33/33 46/46/46 34/34/34
f 33/33/33 45/45/45 46/46/46
f 34/34/34 47/47/47 35/35/35
f 34/34/34 46/46/46 47/47/47
f 35/35/35 48/48/48 36/36/36
f 35/35/35 47/47/47 48/48/48
f 36/36/36 37/37/37 25/25/25
f 36/36/36 48/48/48 37/37/37
f 37/37/37 50/50/50 38/38/38
f 37/37/37 49/49/49 50/50/50
f 38/38/38 51/51/51 39/39/39
f 38/38/38 50/50/50 51/51/51
f 39/39/39 52/52/52 40/40/40
f 39/39/39 51/51/51 52/52/52
f 40/40/40 53/53/53 41/41/41
f 40/40/40 52/52/52 53/53/53
f 41/41/41 54/54/54 42/42/42
f 41/41/41 53/53/53 54/54/54
f 42/42/42 55/55/55 43/43/43
f 42/42/42 54/54/54 55/55/55
f 43/43/43 56/56/56 44/44/44
f 43/43/43 55/55/55 56/56/56
f 44/44/44 57/57/57 45/45/45
f 44/44/44 56/56/56 57/57/57
f 45/45/45 58/58/58 46/46/46
f 45/45/45 57/57/57 58/58/58
f 46/46/46 59/59/59 47/47/47
f 46/46/46 58/58/58 59/59/59
f 47/47/47 60/60/60 48/48/48
f 47/47/47 59/59/59 60/60/60
f 48/48/48 49/49/49 37/37/37
f 48/48/48 60/60/60 49/49/49
f 49/49/49 62/62/62 50/50/50
f 49/49/49 61/61/61 62/62/62
f 50/50/50 63/63/63 51/51/51
f 50/50/50 62/62/62 63/63/63
f 51/51/51 64/64/64 52/52/52
f 51/51/51 63/63/63 64/64/64
f 52/52/52 65/65/65 53/53/53
f 52/52/52 64/64/64 65/65/65
f 53/53/53 66/66/66 54/54/54
f 53/53/53 65/65/65 66/66/66
f 54/54/54 67/67/67 55/55/55
f 54/54/54 66/66/66 67/67/67
f 55/55/55 68/68/68 56/56/56
f 55/55/55 67/67/67 68/68/68
f 56/56/56 69/69/69 57/57/57
f 56/56/56 68/68/68 69/69/69
f 57/57/57 70/70/70 58/58/58
f 57/57/57 69/69/69 70/70/70
f 58/58/58 71/71/71 59/59/59
f 58/58/58 70/70/70 71/71/71
f 59/59/59 72/72/72 60/60/60
f 59/59/59 71/71/71 72/72/72
f 60/60/60 61/61/61 49/49/49
f 60/60/60 72/72/72 61/61/61
f 73/73/73 1/1/1 2/2/2
f 61/61/61 74/74/74 62/62/62
f 73/73/73 2/2/2 3/3/3
f 62/62/62 74/74/74 63/63/63
f 73/73/73 3/3/3 4/4/4
f 63/63/63 74/74/74 64/64/64
f 73/73/73 4/4/4 5/5/5
f 64/64/64 74/74/74 65/65/65
f 73/73/73 5/5/5 6/6/6
f 65/65/65 74/74/74 66/66/66
f 73/73/73 6/6/6 7/7/7
f 66/66/66 74/74/74 67/67/67
f 73/73/73 7/7/7 8/8/8
f 67/67/67 74/74/74 68/68/68
f 73/73/73 8/8/8 9/9/9
f 68/68/68 74/74/74 69/69/69
f 73/73/73 9/9/9 10/10/10
f 69/69/69 74/74/74 70/70/70
f 73/73/73 10/10/10 11/11/11
f 70/70/70 74/74/74 71/71/71
f 73/73/73 11/11/11 12/12/12
f 71/71/71 74/74/74 72/72/72
f 73/73/73 12/12/12 1/1/1
f 72/72/72 74/74/74 61/61/61
usemtl rope
v 0.194194 0.422747 0.000000 0.840000 0.760000 0.610000
v 0.209798 0.404096 0.000000 0.840000 0.760000 0.610000
v 0.194194 0.385446 0.000000 0.840000 0.760000 0.610000
v 0.178589 0.404096 0.000000 0.840000 0.760000 0.610000
v 0.164777 0.415358 0.097097 0.840000 0.760000 0.610000
v 0.181285 0.400653 0.105042 0.840000 0.760000 0.610000
v 0.171576 0.378953 0.097097 0.840000 0.760000 0.610000
v 0.155068 0.393659 0.089152 0.840000 0.760000 0.610000
v 0.093697 0.396395 0.168177 0.840000 0.760000 0.610000
v 0.104573 0.380187 0.181772 0.840000 0.760000 0.610000
v 0.100496 0.359990 0.168177 0.840000 0.760000 0.610000
v 0.089620 0.376198 0.154581 0.840000 0.760000 0.610000
v -0.003400 0.370492 0.194194 0.840000 0.760000 0.610000
v 0.000000 0.352289 0.209798 0.840000 0.760000 0.610000
v 0.003400 0.334087 0.194194 0.840000 0.760000 0.610000
v 0.000000 0.352289 0.178589 0.840000 0.760000 0.610000
v -0.100496 0.344588 0.168177 0.840000 0.760000 0.610000
v -0.104573 0.324391 0.181772 0.840000 0.760000 0.610000
v -0.093697 0.308183 0.168177 0.840000 0.760000 0.610000
v -0.089620 0.328380 0.154581 0.840000 0.760000 0.610000
v -0.171576 0.325625 0.097097 0.840000 0.760000 0.610000
v -0.181285 0.303926 0.105042 0.840000 0.760000 0.610000
v -0.164777 0.289220 0.097097 0.840000 0.760000 0.610000
v -0.155068 0.310920 0.089152 0.840000 0.760000 0.610000
v -0.194194 0.281831 0.000000 0.840000 0.760000 0.610000
v -0.178589 0.300482 0.000000 0.840000 0.760000 0.610000
v -0.194194 0.319133 0.000000 0.840000 0.760000 0.610000
v -0.209798 0.300482 0.000000 0.840000 0.760000 0.610000
v -0.164777 0.289220 -0.097097 0.840000 0.760000 0.610000
v -0.155068 0.310920 -0.089152 0.840000 0.760000 0.610000
v -0.171576 0.325625 -0.097097 0.840000 0.760000 0.610000
v -0.181285 0.303926 -0.105042 0.840000 0.760000 0.610000
v -0.093697 0.308183 -0.168177 0.840000 0.760000 0.610000
v -0.089620 0.328380 -0.154581 0.840000 0.760000 0.610000
v -0.100496 0.344588 -0.168177 0.840000 0.760000 0.610000
v -0.104573 0.324391 -0.181772 0.840000 0.760000 0.610000
v 0.003400 0.334087 -0.194194 0.840000 0.760000 0.610000
v 0.000000 0.352289 -0.178589 0.840000 0.760000 0.610000
v -0.003400 0.370492 -0.194194 0.840000 0.760000 0.610000
v 0.000000 0.352289 -0.209798 0.840000 0.760000 0.610000
v 0.100496 0.359990 -0.168177 0.840000 0.760000 0.610000
v 0.089620 0.376198 -0.154581 0.840000 0.760000 0.610000
v 0.093697 0.396395 -0.168177 0.840000 0.760000 0.610000
v 0.104573 0.380187 -0.181772 0.840000 0.760000 0.610000
v 0.171576 0.378953 -0.097097 0.840000 0.760000 0.610000
v 0.155068 0.393659 -0.089152 0.840000 0.760000 0.610000
v 0.164777 0.415358 -0.097097 0.840000 0.760000 0.610000
v 0.181285 0.400653 -0.105042 0.840000 0.760000 0.610000
vt 0.000000 0.000000
vt 0.000000 0.000000
vt 0.000000 0.000000
vt 0.000000 0.000000
vt 0.000000 0.000000
vt 0.000000 0.000000
vt 0.000000 0.000000
vt 0.000000 0.000000
vt 0.000000 0.000000
vt 0.000000 0.000000
vt 0.000000 0.000000
vt 0.000000 0.000000
vt 0.000000 0.000000
vt 0.000000 0.000000
vt 0.000000 0.000000
vt 0.000000 0.000000
vt 0.000000 0.000000
vt 0.000000 0.000000
vt 0.000000 0.000000
vt 0.000000 0.000000
vt 0.000000 0.000000
vt 0.000000 0.000000
vt 0.000000 0.000000
vt 0.000000 0.000000
vt 0.000000 0.000000
vt 0.000000 0.000000
vt 0.000000 0.000000
vt 0.000000 0.000000
vt 0.000000 0.000000
vt 0.000000 0.000000
vt 0.000000 0.000000
vt 0.000000 0.000000
vt 0.000000 0.000000
vt 0.000000 0.000000
vt 0.000000 0.000000
vt 0.000000 0.000000
vt 0.000000 0.000000
vt 0.000000 0.000000
vt 0.000000 0.000000
vt 0.000000 0.000000
vt 0.000000 0.000000
vt 0.000000 0.000000
vt 0.000000 0.000000
vt 0.000000 0.000000
vt 0.000000 0.000000
vt 0.000000 0.000000
vt 0.000000 0.000000
vt 0.000000 0.000000
vn 0.477016 0.876033 -0.070865
vn 0.942589 -0.329014 0.057242
vn -0.449828 -0.889638 -0.078736
vn -0.917441 0.356959 -0.175733
vn -0.238136 0.963490 0.122388
vn 0.852794 0.125954 0.506831
vn 0.283999 -0.955309 -0.082027
vn -0.857902 -0.123075 -0.498856
vn -0.326822 0.941774 0.079054
vn 0.480563 0.088061 0.872528
vn 0.355510 -0.934310 -0.026016
vn -0.480145 -0.087797 -0.872784
vn -0.353705 0.934877 0.029972
vn 0.000000 0.000000 1.000000
vn 0.353705 -0.934877 0.029972
vn 0.000000 0.000000 -1.000000
vn -0.355510 0.934310 -0.026016
vn -0.480563 -0.088061 0.872528
vn 0.326822 -0.941774 0.079054
vn 0.480145 0.087797 -0.872784
vn 0.097135 0.935059 -0.340924
vn -0.827545 0.195483 0.526266
vn -0.238253 -0.951331 0.195458
vn 0.732841 -0.228798 -0.640778
vn 0.526745 -0.845008 0.092200
vn 0.883914 0.416496 0.212669
vn -0.562337 0.822678 0.083540
vn -0.910883 -0.406978 -0.068267
vn 0.134120 -0.988045 0.076019
vn 0.840398 0.128615 0.526487
vn -0.197051 0.975662 -0.096196
vn -0.846755 -0.132620 -0.515187
vn 0.155508 -0.987481 0.026427
vn 0.479257 0.091383 0.872904
vn -0.184893 0.979502 -0.079938
vn -0.479763 -0.091292 -0.872636
vn 0.157415 -0.987063 -0.030437
vn 0.000000 0.000000 1.000000
vn -0.157415 0.987063 -0.030437
vn 0.000000 0.000000 -1.000000
vn 0.184893 -0.979502 -0.079938
vn -0.479257 -0.091383 0.872904
vn -0.155508 0.987481 0.026427
vn 0.479763 0.091292 -0.872636
vn 0.680875 -0.704705 -0.199499
vn -0.585145 -0.534800 0.609585
vn -0.604176 0.738244 0.299946
vn 0.668572 0.526629 -0.525047
f 75/75/75 80/80/80 76/76/76
f 75/75/75 79/79/79 80/80/80
f 76/76/76 81/81/81 77/77/77
f 76/76/76 80/80/80 81/81/81
f 77/77/77 82/82/82 78/78/78
f 77/77/77 81/81/81 82/82/82
f 78/78/78 79/79/79 75/75/75
f 78/78/78 82/82/82 79/79/79
f 79/79/79 84/84/84 80/80/80
f 79/79/79 83/83/83 84/84/84
f 80/80/80 85/85/85 81/81/81
f 80/80/80 84/84/84 85/85/85
f 81/81/81 86/86/86 82/82/82
f 81/81/81 85/85/85 86/86/86
f 82/82/82 83/83/83 79/79/79
f 82/82/82 86/86/86 83/83/83
f 83/83/83 88/88/88 84/84/84
f 83/83/83 87/87/87 88/88/88
f 84/84/84 89/89/89 85/85/85
f 84/84/84 88/88/88 89/89/89
f 85/85/85 90/90/90 86/86/86
f 85/85/85 89/89/89 90/90/90
f 86/86/86 87/87/87 83/83/83
f 86/86/86 90/90/90 87/87/87
f 87/87/87 92/92/92 88/88/88
f 87/87/87 91/91/91 92/92/92
f 88/88/88 93/93/93 89/89/89
f 88/88/88 92/92/92 93/93/93
f 89/89/89 94/94/94 90/90/90
f 89/89/89 93/93/93 94/94/94
f 90/90/90 91/91/91 87/87/87
f 90/90/90 94/94/94 91/91/91
f 91/91/91 96/96/96 92/92/92
f 91/91/91 95/95/95 96/96/96
f 92/92/92 97/97/97 93/93/93
f 92/92/92 96/96/96 97/97/97
f 93/93/93 98/98/98 94/94/94
f 93/93/93 97/97/97 98/98/98
f 94/94/94 95/95/95 91/91/91
f 94/94/94 98/98/98 95/95/95
f 95/95/95 100/100/100 96/96/96
f 95/95/95 99/99/99 100/100/100
f 96/96/96 101/101/101 97/97/97
f 96/96/96 100/100/100 101/101/101
f 97/97/97 102/102/102 98/98/98
f 97/97/97 101/101/101 102/102/102
f 98/98/98 99/99/99 95/95/95
f 98/98/98 102/102/102 99/99/99
f 99/99/99 104/104/104 100/100/100
f 99/99/99 103/103/103 104/104/104
f 100/100/100 105/105/105 101/101/101
f 100/100/100 104/104/104 105/105/105
f 101/101/101 106/106/106 102/102/102
f 101/101/101 105/105/105 106/106/106
f 102/102/102 103/103/103 99/99/99
f 102/102/102 106/106/106 103/103/103
f 103/103/103 108/108/108 104/104/104
f 103/103/103 107/107/107 108/108/108
f 104/104/104 109/109/109 105/105/105
f 104/104/104 108/108/108 109/109/109
f 105/105/105 110/110/110 106/106/106
f 105/105/105 109/109/109 110/110/110
f 106/106/106 107/107/107 103/103/103
f 106/106/106 110/110/110 107/107/107
f 107/107/107 112/112/112 108/108/108
f 107/107/107 111/111/111 112/112/112
f 108/108/108 113/113/113 109/109/109
f 108/108/108 112/112/112 113/113/113
f 109/109/109 114/114/114 110/110/110
f 109/109/109 113/113/113 114/114/114
f 110/110/110 111/111/111 107/107/107
f 110/110/110 114/114/114 111/111/111
f 111/111/111 116/116/116 112/112/112
f 111/111/111 115/115/115 116/116/116
f 112/112/112 117/117/117 113/113/113
f 112/112/112 116/116/116 117/117/117
f 113/113/113 118/118/118 114/114/114
f 113/113/113 117/117/117 118/118/118
f 114/114/114 115/115/115 111/111/111
f 114/114/114 118/118/118 115/115/115
f 115/115/115 120/120/120 116/116/116
f 115/115/115 119/119/119 120/120/120
f 116/116/116 121/121/121 117/117/117
f 116/116/116 120/120/120 121/121/121
f 117/117/117 122/122/122 118/118/118
f 117/117/117 121/121/121 122/122/122
f 118/118/118 119/119/119 115/115/115
f 118/118/118 122/122/122 119/119/119
f 119/119/119 76/76/76 120/120/120
f 119/119/119 75/75/75 76/76/76
f 120/120/120 77/77/77 121/121/121
f 120/120/120 76/76/76 77/77/77
f 121/121/121 78/78/78 122/122/122
f 121/121/121 77/77/77 78/78/78
f 122/122/122 75/75/75 119/119/119
f 122/122/122 78/78/78 75/75/75
usemtl rope
v 0.199395 0.319133 0.000000 0.840000 0.760000 0.610000
v 0.215000 0.300482 0.000000 0.840000 0.760000 0.610000
v 0.199395 0.281831 0.000000 0.840000 0.760000 0.610000
v 0.183790 0.300482 0.000000 0.840000 0.760000 0.610000
v 0.175996 0.325648 0.099698 0.840000 0.760000 0.610000
v 0.185810 0.304012 0.107635 0.840000 0.760000 0.610000
v 0.169366 0.289198 0.099698 0.840000 0.760000 0.610000
v 0.159553 0.310834 0.091760 0.840000 0.760000 0.610000
v 0.103013 0.344610 0.172681 0.840000 0.760000 0.610000
v 0.107190 0.324439 0.186272 0.840000 0.760000 0.610000
v 0.096383 0.308161 0.172681 0.840000 0.760000 0.610000
v 0.092205 0.328332 0.159090 0.840000 0.760000 0.610000
v 0.003315 0.370514 0.199395 0.840000 0.760000 0.610000
v 0.000000 0.352289 0.215000 0.840000 0.760000 0.610000
v -0.003315 0.334064 0.199395 0.840000 0.760000 0.610000
v 0.000000 0.352289 0.183790 0.840000 0.760000 0.610000
v -0.096383 0.396418 0.172681 0.840000 0.760000 0.610000
v -0.107190 0.380140 0.186272 0.840000 0.760000 0.610000
v -0.103013 0.359968 0.172681 0.840000 0.760000 0.610000
v -0.092205 0.376246 0.159090 0.840000 0.760000 0.610000
v -0.169366 0.415380 0.099698 0.840000 0.760000 0.610000
v -0.185810 0.400567 0.107635 0.840000 0.760000 0.610000
v -0.175996 0.378931 0.099698 0.840000 0.760000 0.610000
v -0.159553 0.393744 0.091760 0.840000 0.760000 0.610000
v -0.199395 0.385446 0.000000 0.840000 0.760000 0.610000
v -0.183790 0.404096 0.000000 0.840000 0.760000 0.610000
v -0.199395 0.422747 0.000000 0.840000 0.760000 0.610000
v -0.215000 0.404096 0.000000 0.840000 0.760000 0.610000
v -0.175996 0.378931 -0.099698 0.840000 0.760000 0.610000
v -0.159553 0.393744 -0.091760 0.840000 0.760000 0.610000
v -0.169366 0.415380 -0.099698 0.840000 0.760000 0.610000
v -0.185810 0.400567 -0.107635 0.840000 0.760000 0.610000
v -0.103013 0.359968 -0.172681 0.840000 0.760000 0.610000
v -0.092205 0.376246 -0.159090 0.840000 0.760000 0.610000
v -0.096383 0.396418 -0.172681 0.840000 0.760000 0.610000
v -0.107190 0.380140 -0.186272 0.840000 0.760000 0.610000
v -0.003315 0.334064 -0.199395 0.840000 0.760000 0.610000
v 0.000000 0.352289 -0.183790 0.840000 0.760000 0.610000
v 0.003315 0.370514 -0.199395 0.840000 0.760000 0.610000
v 0.000000 0.352289 -0.215000 0.840000 0.760000 0.610000
v 0.096383 0.308161 -0.172681 0.840000 0.760000 0.610000
v 0.092205 0.328332 -0.159090 0.840000 0.760000 0.610000
v 0.103013 0.344610 -0.172681 0.840000 0.760000 0.610000
v 0.107190 0.324439 -0.186272 0.840000 0.760000 0.610000
v 0.169366 0.289198 -0.099698 0.840000 0.760000 0.610000
v 0.159553 0.310834 -0.091760 0.840000 0.760000 0.610000
v 0.175996 0.325648 -0.099698 0.840000 0.760000 0.610000
v 0.185810 0.304012 -0.107635 0.840000 0.760000 0.610000
vt 0.000000 0.000000
vt 0.000000 0.000000
vt 0.000000 0.000000
vt 0.000000 0.000000
vt 0.000000 0.000000
vt 0.000000 0.000000
vt 0.000000 0.000000
vt 0.000000 0.000000
vt 0.000000 0.000000
vt 0.000000 0.000000
vt 0.000000 0.000000
vt 0.000000 0.000000
vt 0.000000 0.000000
vt 0.000000 0.000000
vt 0.000000 0.000000
vt 0.000000 0.000000
vt 0.000000 0.000000
vt 0.000000 0.000000
vt 0.000000 0.000000
vt 0.000000 0.000000
vt 0.000000 0.000000
vt 0.000000 0.000000
vt 0.000000 0.000000
vt 0.000000 0.000000
vt 0.000000 0.000000
vt 0.000000 0.000000
vt 0.000000 0.000000
vt 0.000000 0.000000
vt 0.000000 0.000000
vt 0.000000 0.000000
vt 0.000000 0.000000
vt 0.000000 0.000000
vt 0.000000 0.000000
vt 0.000000 0.000000
vt 0.000000 0.000000
vt 0.000000 0.000000
vt 0.000000 0.000000
vt 0.000000 0.000000
vt 0.000000 0.000000
vt 0.000000 0.000000
vt 0.000000 0.000000
vt 0.000000 0.000000
vt 0.000000 0.000000
vt 0.000000 0.000000
vt 0.000000 0.000000
vt 0.000000 0.000000
vt 0.000000 0.000000
vt 0.000000 0.000000
vn 0.561268 0.823624 -0.081372
vn 0.911033 -0.406415 0.069612
vn -0.526766 -0.845277 -0.089583
vn -0.884781 0.415980 -0.210054
vn 0.190598 0.976945 0.096180
vn 0.847619 -0.129178 0.514641
vn -0.129468 -0.988650 -0.076217
vn -0.841606 0.125399 -0.525333
vn 0.178020 0.980827 0.079287
vn 0.480771 -0.089054 0.872312
vn -0.149275 -0.988425 -0.027087
vn -0.480303 0.089141 -0.872561
vn 0.150787 0.988120 0.029716
vn 0.000000 0.000000 1.000000
vn -0.150787 -0.988120 0.029716
vn 0.000000 0.000000 -1.000000
vn 0.149275 0.988425 -0.027087
vn -0.480771 0.089054 0.872312
vn -0.178020 -0.980827 0.079287
vn 0.480303 -0.089141 -0.872561
vn 0.600718 0.741419 -0.299058
vn -0.670822 0.523270 0.525534
vn -0.676121 -0.708977 0.200529
vn 0.589411 -0.531496 -0.608365
vn 0.451586 -0.888916 0.076798
vn 0.917434 0.357613 0.174438
vn -0.478126 0.875552 0.069318
vn -0.941954 -0.330585 -0.058617
vn -0.278483 -0.956907 0.082320
vn 0.858417 -0.120117 0.498690
vn 0.233584 0.964720 -0.121465
vn -0.853558 0.122856 -0.506304
vn -0.349269 -0.936643 0.026676
vn 0.481124 -0.085734 0.872450
vn 0.321194 0.943760 -0.078424
vn -0.481513 0.085976 -0.872212
vn -0.347843 -0.937096 -0.029272
vn 0.000000 0.000000 1.000000
vn 0.347843 0.937096 -0.029272
vn 0.000000 0.000000 -1.000000
vn -0.321194 -0.943760 -0.078424
vn -0.481124 0.085734 0.872450
vn 0.349269 0.936643 0.026676
vn 0.481513 -0.085976 -0.872212
vn 0.243939 -0.949531 -0.197194
vn -0.733673 -0.232662 0.638429
vn -0.107156 0.934797 0.338634
vn 0.825803 0.200575 -0.527085
f 123/123/123 128/128/128 124/124/124
f 123/123/123 127/127/127 128/128/128
f 124/124/124 129/129/129 125/125/125
f 124/124/124 128/128/128 129/129/129
f 125/125/125 130/130/130 126/126/126
f 125/125/125 129/129/129 130/130/130
f 126/126/126 127/127/127 123/123/123
f 126/126/126 130/130/130 127/127/127
f 127/127/127 132/132/132 128/128/128
f 127/127/127 131/131/131 132/132/132
f 128/128/128 133/133/133 129/129/129
f 128/128/128 132/132/132 133/133/133
f 129/129/129 134/134/134 130/130/130
f 129/129/129 133/133/133 134/134/134
f 130/130/130 131/131/131 127/127/127
f 130/130/130 134/134/134 131/131/131
f 131/131/131 136/136/136 132/132/132
f 131/131/131 135/135/135 136/136/136
f 132/132/132 137/137/137 133/133/133
f 132/132/132 136/136/136 137/137/137
f 133/133/133 138/138/138 134/134/134
f 133/133/133 137/137/137 138/138/138
f 134/134/134 135/135/135 131/131/131
f 134/134/134 138/138/138 135/135/135
f 135/135/135 140/140/140 136/136/136
f 135/135/135 139/139/139 140/140/140
f 136/136/136 141/141/141 137/137/137
f 136/136/136 140/140/140 141/141/141
f 137/137/137 142/142/142 138/138/138
f 137/137/137 141/141/141 142/142/142
f 138/138/138 139/139/139 135/135/135
f 138/138/138 142/142/142 139/139/139
f 139/139/139 144/144/144 140/140/140
f 139/139/139 143/143/143 144/144/144
f 140/140/140 145/145/145 141/141/141
f 140/140/140 144/144/144 145/145/145
f 141/141/141 146/146/146 142/142/142
f 141/141/141 145/145/145 146/146/146
f 142/142/142 143/143/143 139/139/139
f 142/142/142 146/146/146 143/143/143
f 143/143/143 148/148/148 144/144/144
f 143/143/143 147/147/147 148/148/148
f 144/144/144 149/149/149 145/145/145
f 144/144/144 148/148/148 149/149/149
f 145/145/145 150/150/150 146/146/146
f 145/145/145 149/149/149 150/150/150
f 146/146/146 147/147/147 143/143/143
f 146/146/146 150/150/150 147/147/147
f 147/147/147 152/152/152 148/148/148
f 147/147/147 151/151/151 152/152/152
f 148/148/148 153/153/153 149/149/149
f 148/148/148 152/152/152 153/153/153
f 149/149/149 154/154/154 150/150/150
f 149/149/149 153/153/153 154/154/154
f 150/150/150 151/151/151 147/147/147
f 150/150/150 154/154/154 151/151/151
f 151/151/151 156/156/156 152/152/152
f 151/151/151 155/155/155 156/156/156
f 152/152/152 157/157/157 153/153/153
f 152/152/152 156/156/156 157/157/157
f 153/153/153 158/158/158 154/154/154
f 153/153/153 157/157/157 158/158/158
f 154/154/154 155/155/155 151/151/151
f 154/154/154 158/158/158 155/155/155
f 155/155/155 160/160/160 156/156/156
f 155/155/155 159/159/159 160/160/160
f 156/156/156 161/161/161 157/157/157
f 156/156/156 160/160/160 161/161/161
f 157/157/157 162/162/162 158/158/158
f 157/157/157 161/161/161 162/162/162
f 158/158/158 159/159/159 155/155/155
f 158/158/158 162/162/162 159/159/159
f 159/159/159 164/164/164 160/160/160
f 159/159/159 163/163/163 164/164/164
f 160/160/160 165/165/165 161/161/161
f 160/160/160 164/164/164 165/165/165
f 161/161/161 166/166/166 162/162/162
f 161/161/161 165/165/165 166/166/166
f 162/162/162 163/163/163 159/159/159
f 162/162/162 166/166/166 163/163/163
f 163/163/163 168/168/168 164/164/164
f 163/163/163 167/167/167 168/168/168
f 164/164/164 169/169/169 165/165/165
f 164/164/164 168/168/168 169/169/169
f 165/165/165 170/170/170 166/166/166
f 165/165/165 169/169/169 170/170/170
f 166/166/166 167/167/167 163/163/163
f 166/166/166 170/170/170 167/167/167
f 167/167/167 124/124/124 168/168/168
f 167/167/167 123/123/123 124/124/124
f 168/168/168 125/125/125 169/169/169
f 168/168/168 124/124/124 125/125/125
f 169/169/169 126/126/126 170/170/170
f 169/169/169 125/125/125 126/126/126
f 170/170/170 123/123/123 167/167/167
f 170/170/170 126/126/126 123/123/123
usemtl rope
v 0.194194 1.002988 0.000000 0.840000 0.760000 0.610000
v 0.209798 0.984337 0.000000 0.840000 0.760000 0.610000
v 0.194194 0.965687 0.000000 0.840000 0.760000 0.610000
v 0.178589 0.984337 0.000000 0.840000 0.760000 0.610000
v 0.164777 0.995599 0.097097 0.840000 0.760000 0.610000
v 0.181285 0.980894 0.105042 0.840000 0.760000 0.610000
v 0.171576 0.959194 0.097097 0.840000 0.760000 0.610000
v 0.155068 0.973899 0.089152 0.840000 0.760000 0.610000
v 0.093697 0.976636 0.168177 0.840000 0.760000 0.610000
v 0.104573 0.960428 0.181772 0.840000 0.760000 0.610000
v 0.100496 0.940231 0.168177 0.840000 0.760000 0.610000
v 0.089620 0.956439 0.154581 0.840000 0.760000 0.610000
v -0.003400 0.950733 0.194194 0.840000 0.760000 0.610000
v 0.000000 0.932530 0.209798 0.840000 0.760000 0.610000
v 0.003400 0.914327 0.194194 0.840000 0.760000 0.610000
v 0.000000 0.932530 0.178589 0.840000 0.760000 0.610000
v -0.100496 0.924829 0.168177 0.840000 0.760000 0.610000
v -0.104573 0.904632 0.181772 0.840000 0.760000 0.610000
v -0.093697 0.888424 0.168177 0.840000 0.760000 0.610000
v -0.089620 0.908621 0.154581 0.840000 0.760000 0.610000
v -0.171576 0.905866 0.097097 0.840000 0.760000 0.610000
v -0.181285 0.884167 0.105042 0.840000 0.760000 0.610000
v -0.164777 0.869461 0.097097 0.840000 0.760000 0.610000
v -0.155068 0.891161 0.089152 0.840000 0.760000 0.610000
v -0.194194 0.862072 0.000000 0.840000 0.760000 0.610000
v -0.178589 0.880723 0.000000 0.840000 0.760000 0.610000
v -0.194194 0.899373 0.000000 0.840000 0.760000 0.610000
v -0.209798 0.880723 0.000000 0.840000 0.760000 0.610000
v -0.164777 0.869461 -0.097097 0.840000 0.760000 0.610000
v -0.155068 0.891161 -0.089152 0.840000 0.760000 0.610000
v -0.171576 0.905866 -0.097097 0.840000 0.760000 0.610000
v -0.181285 0.884167 -0.105042 0.840000 0.760000 0.610000
v -0.093697 0.888424 -0.168177 0.840000 0.760000 0.610000
v -0.089620 0.908621 -0.154581 0.840000 0.760000 0.610000
v -0.100496 0.924829 -0.168177 0.840000 0.760000 0.610000
v -0.104573 0.904632 -0.181772 0.840000 0.760000 0.610000
v 0.003400 0.914327 -0.194194 0.840000 0.760000 0.610000
v 0.000000 0.932530 -0.178589 0.840000 0.760000 0.610000
v -0.003400 0.950733 -0.194194 0.840000 0.760000 0.610000
v 0.000000 0.932530 -0.209798 0.840000 0.760000 0.610000
v 0.100496 0.940231 -0.168177 0.840000 0.760000 0.610000
v 0.089620 0.956439 -0.154581 0.840000 0.760000 0.610000
v 0.093697 0.976636 -0.168177 0.840000 0.760000 0.610000
v 0.104573 0.960428 -0.181772 0.840000 0.760000 0.610000
v 0.171576 0.959194 -0.097097 0.840000 0.760000 0.610000
v 0.155068 0.973899 -0.089152 0.840000 0.760000 0.610000
v 0.164777 0.995599 -0.097097 0.840000 0.760000 0.610000
v 0.181285 0.980894 -0.105042 0.840000 0.760000 0.610000
vt 0.000000 0.000000
vt 0.000000 0.000000
vt 0.000000 0.000000
vt 0.000000 0.000000
vt 0.000000 0.000000
vt 0.000000 0.000000
vt 0.000000 0.000000
vt 0.000000 0.000000
vt 0.000000 0.000000
vt 0.000000 0.000000
vt 0.000000 0.000000
vt 0.000000 0.000000
vt 0.000000 0.000000
vt 0.000000 0.000000
vt 0.000000 0.000000
vt 0.000000 0.000000
vt 0.000000 0.000000
vt 0.000000 0.000000
vt 0.000000 0.000000
vt 0.000000 0.000000
vt 0.000000 0.000000
vt 0.000000 0.000000
vt 0.000000 0.000000
vt 0.000000 0.000000
vt 0.000000 0.000000
vt 0.000000 0.000000
vt 0.000000 0.000000
vt 0.000000 0.000000
vt 0.000000 0.000000
vt 0.000000 0.000000
vt 0.000000 0.000000
vt 0.000000 0.000000
vt 0.000000 0.000000
vt 0.000000 0.000000
vt 0.000000 0.000000
vt 0.000000 0.000000
vt 0.000000 0.000000
vt 0.000000 0.000000
vt 0.000000 0.000000
vt 0.000000 0.000000
vt 0.000000 0.000000
vt 0.000000 0.000000
vt 0.000000 0.000000
vt 0.000000 0.000000
vt 0.000000 0.000000
vt 0.000000 0.000000
vt 0.000000 0.000000
vt 0.000000 0.000000
vn 0.477016 0.876033 -0.070865
vn 0.942589 -0.329014 0.057242
vn -0.449828 -0.889638 -0.078736
vn -0.917441 0.356959 -0.175733
vn -0.238136 0.963490 0.122388
vn 0.852794 0.125954 0.506831
vn 0.283999 -0.955309 -0.082027
vn -0.857902 -0.123075 -0.498856
vn -0.326822 0.941774 0.079054
vn 0.480563 0.088061 0.872528
vn 0.355510 -0.934310 -0.026016
vn -0.480145 -0.087797 -0.872784
vn -0.353705 0.934877 0.029972
vn 0.000000 0.000000 1.000000
vn 0.353705 -0.934877 0.029972
vn 0.000000 0.000000 -1.000000
vn -0.355510 0.934310 -0.026016
vn -0.480563 -0.088061 0.872528
vn 0.326822 -0.941774 0.079054
vn 0.480145 0.087797 -0.872784
vn 0.097135 0.935059 -0.340924
vn -0.827545 0.195483 0.526266
vn -0.238253 -0.951331 0.195458
vn 0.732841 -0.228798 -0.640778
vn 0.526745 -0.845008 0.092200
vn 0.883914 0.416496 0.212669
vn -0.562337 0.822678 0.083540
vn -0.910883 -0.406978 -0.068267
vn 0.134120 -0.988045 0.076019
vn 0.840398 0.128615 0.526487
vn -0.197051 0.975662 -0.096196
vn -0.846755 -0.132620 -0.515187
vn 0.155508 -0.987481 0.026427
vn 0.479257 0.091383 0.872904
vn -0.184893 0.979502 -0.079938
vn -0.479763 -0.091292 -0.872636
vn 0.157415 -0.987063 -0.030437
vn 0.000000 0.000000 1.000000
vn -0.157415 0.987063 -0.030437
vn 0.000000 0.000000 -1.000000
vn 0.184893 -0.979502 -0.079938
vn -0.479257 -0.091383 0.872904
vn -0.155508 0.987481 0.026427
vn 0.479763 0.091292 -0.872636
vn 0.680875 -0.704705 -0.199499
vn -0.585145 -0.534800 0.609585
vn -0.604176 0.738244 0.299946
vn 0.668572 0.526629 -0.525047
f 171/171/171 176/176/176 172/172/172
f 171/171/171 175/175/175 176/176/176
f 172/172/172 177/177/177 173/173/173
f 172/172/172 176/176/176 177/177/177
f 173/173/173 178/178/178 174/174/174
f 173/173/173 177/177/177 178/178/178
f 174/174/174 175/175/175 171/171/171
f 174/174/174 178/178/178 175/175/175
f 175/175/175 180/180/180 176/176/176
f 175/175/175 179/179/179 180/180/180
f 176/176/176 181/181/181 177/177/177
f 176/176/176 180/180/180 181/181/181
f 177/177/177 182/182/182 178/178/178
f 177/177/177 181/181/181 182/182/182
f 178/178/178 179/179/179 175/175/175
f 178/178/178 182/182/182 179/179/179
f 179/179/179 184/184/184 180/180/180
f 179/179/179 183/183/183 184/184/184
f 180/180/180 185/185/185 181/181/181
f 180/180/180 184/184/184 185/185/185
f 181/181/181 186/186/186 182/182/182
f 181/181/181 185/185/185 186/186/186
f 182/182/182 183/183/183 179/179/179
f 182/182/182 186/186/186 183/183/183
f 183/183/183 188/188/188 184/184/184
f 183/183/183 187/187/187 188/188/188
f 184/184/184 189/189/189 185/185/185
f 184/184/184 188/188/188 189/189/189
f 185/185/185 190/190/190 186/186/186
f 185/185/185 189/189/189 190/190/190
f 186/186/186 187/187/187 183/183/183
f 186/186/186 190/190/190 187/187/187
f 187/187/187 192/192/192 188/188/188
f 187/187/187 191/191/191 192/192/192
f 188/188/188 193/193/193 189/189/189
f 188/188/188 192/192/192 193/193/193
f 189/189/189 194/194/194 190/190/190
f 189/189/189 193/193/193 194/194/194
f 190/190/190 191/191/191 187/187/187
f 190/190/190 194/194/194 191/191/191
f 191/191/191 196/196/196 192/192/192
f 191/191/191 195/195/195 196/196/196
f 192/192/192 197/197/197 193/193/193
f 192/192/192 196/196/196 197/197/197
f 193/193/193 198/198/198 194/194/194
f 193/193/193 197/197/197 198/198/198
f 194/194/194 195/195/195 191/191/191
f 194/194/194 198/198/198 195/195/195
f 195/195/195 200/200/200 196/196/196
f 195/195/195 199/199/199 200/200/200
f 196/196/196 201/201/201 197/197/197
f 196/196/196 200/200/200 201/201/201
f 197/197/197 202/202/202 198/198/198
f 197/197/197 201/201/201 202/202/202
f 198/198/198 199/199/199 195/195/195
f 198/198/198 202/202/202 199/199/199
f 199/199/199 204/204/204 200/200/200
f 199/199/199 203/203/203 204/204/204
f 200/200/200 205/205/205 201/201/201
f 200/200/200 204/204/204 205/205/205
f 201/201/201 206/206/206 202/202/202
f 201/201/201 205/205/205 206/206/206
f 202/202/202 203/203/203 199/199/199
f 202/202/202 206/206/206 203/203/203
f 203/203/203 208/208/208 204/204/204
f 203/203/203 207/207/207 208/208/208
f 204/204/204 209/209/209 205/205/205
f 204/204/204 208/208/208 209/209/209
f 205/205/205 210/210/210 206/206/206
f 205/205/205 209/209/209 210/210/210
f 206/206/206 207/207/207 203/203/203
f 206/206/206 210/210/210 207/207/207
f 207/207/207 212/212/212 208/208/208
f 207/207/207 211/211/211 212/212/212
f 208/208/208 213/213/213 209/209/209
f 208/208/208 212/212/212 213/213/213
f 209/209/209 214/214/214 210/210/210
f 209/209/209 213/213/213 214/214/214
f 210/210/210 211/211/211 207/207/207
f 210/210/210 214/214/214 211/211/211
f 211/211/211 216/216/216 212/212/212
f 211/211/211 215/215/215 216/216/216
f 212/212/212 217/217/217 213/213/213
f 212/212/212 216/216/216 217/217/217
f 213/213/213 218/218/218 214/214/214
f 213/213/213 217/217/217 218/218/218
f 214/214/214 215/215/215 211/211/211
f 214/214/214 218/218/218 215/215/215
f 215/215/215 172/172/172 216/216/216
f 215/215/215 171/171/171 172/172/172
f 216/216/216 173/173/173 217/217/217
f 216/216/216 172/172/172 173/173/173
f 217/217/217 174/174/174 218/218/218
f 217/217/217 173/173/173 174/174/174
f 218/218/218 171/171/171 215/215/215
f 218/218/218 174/174/174 171/171/171
usemtl rope
v 0.199395 0.899373 0.000000 0.840000 0.760000 0.610000
v 0.215000 0.880723 0.000000 0.840000 0.760000 0.610000
v 0.199395 0.862072 0.000000 0.840000 0.760000 0.610000
v 0.183790 0.880723 0.000000 0.840000 0.760000 0.610000
v 0.175996 0.905889 0.099698 0.840000 0.760000 0.610000
v 0.185810 0.884253 0.107635 0.840000 0.760000 0.610000
v 0.169366 0.869439 0.099698 0.840000 0.760000 0.610000
v 0.159553 0.891075 0.091760 0.840000 0.760000 0.610000
v 0.103013 0.924851 0.172681 0.840000 0.760000 0.610000
v 0.107190 0.904680 0.186272 0.840000 0.760000 0.610000
v 0.096383 0.888402 0.172681 0.840000 0.760000 0.610000
v 0.092205 0.908573 0.159090 0.840000 0.760000 0.610000
v 0.003315 0.950755 0.199395 0.840000 0.760000 0.610000
v 0.000000 0.932530 0.215000 0.840000 0.760000 0.610000
v -0.003315 0.914305 0.199395 0.840000 0.760000 0.610000
v 0.000000 0.932530 0.183790 0.840000 0.760000 0.610000
v -0.096383 0.976659 0.172681 0.840000 0.760000 0.610000
v -0.107190 0.960380 0.186272 0.840000 0.760000 0.610000
v -0.103013 0.940209 0.172681 0.840000 0.760000 0.610000
v -0.092205 0.956487 0.159090 0.840000 0.760000 0.610000
v -0.169366 0.995621 0.099698 0.840000 0.760000 0.610000
v -0.185810 0.980808 0.107635 0.840000 0.760000 0.610000
v -0.175996 0.959172 0.099698 0.840000 0.760000 0.610000
v -0.159553 0.973985 0.091760 0.840000 0.760000 0.610000
v -0.199395 0.965687 0.000000 0.840000 0.760000 0.610000
v -0.183790 0.984337 0.000000 0.840000 0.760000 0.610000
v -0.199395 1.002988 0.000000 0.840000 0.760000 0.610000
v -0.215000 0.984337 0.000000 0.840000 0.760000 0.610000
v -0.175996 0.959172 -0.099698 0.840000 0.760000 0.610000
v -0.159553 0.973985 -0.091760 0.840000 0.760000 0.610000
v -0.169366 0.995621 -0.099698 0.840000 0.760000 0.610000
v -0.185810 0.980808 -0.107635 0.840000 0.760000 0.610000
v -0.103013 0.940209 -0.172681 0.840000 0.760000 0.610000
v -0.092205 0.956487 -0.159090 0.840000 0.760000 0.610000
v -0.096383 0.976659 -0.172681 0.840000 0.760000 0.610000
v -0.107190 0.960380 -0.186272 0.840000 0.760000 0.610000
v -0.003315 0.914305 -0.199395 0.840000 0.760000 0.610000
v 0.000000 0.932530 -0.183790 0.840000 0.760000 0.610000
v 0.003315 0.950755 -0.199395 0.840000 0.760000 0.610000
v 0.000000 0.932530 -0.215000 0.840000 0.760000 0.610000
v 0.096383 0.888402 -0.172681 0.840000 0.760000 0.610000
v 0.092205 0.908573 -0.159090 0.840000 0.760000 0.610000
v 0.103013 0.924851 -0.172681 0.840000 0.760000 0.610000
v 0.107190 0.904680 -0.186272 0.840000 0.760000 0.610000
v 0.169366 0.869439 -0.099698 0.840000 0.760000 0.610000
v 0.159553 0.891075 -0.091760 0.840000 0.760000 0.610000
v 0.175996 0.905889 -0.099698 0.840000 0.760000 0.610000
v 0.185810 0.884253 -0.107635 0.840000 0.760000 0.610000
vt 0.000000 0.000000
vt 0.000000 0.000000
vt 0.000000 0.000000
vt 0.000000 0.000000
vt 0.000000 0.000000
vt 0.000000 0.000000
vt 0.000000 0.000000
vt 0.000000 0.000000
vt 0.000000 0.000000
vt 0.000000 0.000000
vt 0.000000 0.000000
vt 0.000000 0.000000
vt 0.000000 0.000000
vt 0.000000 0.000000
vt 0.000000 0.000000
vt 0.000000 0.000000
vt 0.000000 0.000000
vt 0.000000 0.000000
vt 0.000000 0.000000
vt 0.000000 0.000000
vt 0.000000 0.000000
vt 0.000000 0.000000
vt 0.000000 0.000000
vt 0.000000 0.000000
vt 0.000000 0.000000
vt 0.000000 0.000000
vt 0.000000 0.000000
vt 0.000000 0.000000
vt 0.000000 0.000000
vt 0.000000 0.000000
vt 0.000000 0.000000
vt 0.000000 0.000000
vt 0.000000 0.000000
vt 0.000000 0.000000
vt 0.000000 0.000000
vt 0.000000 0.000000
vt 0.000000 0.000000
vt 0.000000 0.000000
vt 0.000000 0.000000
vt 0.000000 0.000000
vt 0.000000 0.000000
vt 0.000000 0.000000
vt 0.000000 0.000000
vt 0.000000 0.000000
vt 0.000000 0.000000
vt 0.000000 0.000000
vt 0.000000 0.000000
vt 0.000000 0.000000
vn 0.561268 0.823624 -0.081372
vn 0.911033 -0.406415 0.069612
vn -0.526766 -0.845277 -0.089583
vn -0.884781 0.415980 -0.210054
vn 0.190598 0.976945 0.096180
vn 0.847619 -0.129178 0.514641
vn -0.129468 -0.988650 -0.076217
vn -0.841606 0.125399 -0.525333
vn 0.178020 0.980827 0.079287
vn 0.480771 -0.089054 0.872312
vn -0.149275 -0.988425 -0.027087
vn -0.480303 0.089141 -0.872561
vn 0.150787 0.988120 0.029716
vn 0.000000 0.000000 1.000000
vn -0.150787 -0.988120 0.029716
vn 0.000000 0.000000 -1.000000
vn 0.149275 0.988425 -0.027087
vn -0.480771 0.089054 0.872312
vn -0.178020 -0.980827 0.079287
vn 0.480303 -0.089141 -0.872561
vn 0.600718 0.741419 -0.299058
vn -0.670822 0.523270 0.525534
vn -0.676121 -0.708977 0.200529
vn 0.589411 -0.531496 -0.608365
vn 0.451586 -0.888916 0.076798
vn 0.917434 0.357613 0.174438
vn -0.478126 0.875552 0.069318
vn -0.941954 -0.330585 -0.058617
vn -0.278483 -0.956907 0.082320
vn 0.858417 -0.120117 0.498690
vn 0.233584 0.964720 -0.121465
vn -0.853558 0.122856 -0.506304
vn -0.349269 -0.936643 0.026676
vn 0.481124 -0.085734 0.872450
vn 0.321194 0.943760 -0.078424
vn -0.481513 0.085976 -0.872212
vn -0.347843 -0.937096 -0.029272
vn 0.000000 0.000000 1.000000
vn 0.347843 0.937096 -0.029272
vn 0.000000 0.000000 -1.000000
vn -0.321194 -0.943760 -0.078424
vn -0.481124 0.085734 0.872450
vn 0.349269 0.936643 0.026676
vn 0.481513 -0.085976 -0.872212
vn 0.243939 -0.949531 -0.197194
vn -0.733673 -0.232662 0.638429
vn -0.107156 0.934797 0.338634
vn 0.825803 0.200575 -0.527085
f 219/219/219 224/224/224 220/220/220
f 219/219/219 223/223/223 224/224/224
f 220/220/220 225/225/225 221/221/221
f 220/220/220 224/224/224 225/225/225
f 221/221/221 226/226/226 222/222/222
f 221/221/221 225/225/225 226/226/226
f 222/222/222 223/223/223 219/219/219
f 222/222/222 226/226/226 223/223/223
f 223/223/223 228/228/228 224/224/224
f 223/223/223 227/227/227 228/228/228
f 224/224/224 229/229/229 225/225/225
f 224/224/224 228/228/228 229/229/229
f 225/225/225 230/230/230 226/226/226
f 225/225/225 229/229/229 230/230/230
f 226/226/226 227/227/227 223/223/223
f 226/226/226 230/230/230 227/227/227
f 227/227/227 232/232/232 228/228/228
f 227/227/227 231/231/231 232/232/232
f 228/228/228 233/233/233 229/229/229
f 228/228/228 232/232/232 233/233/233
f 229/229/229 234/234/234 230/230/230
f 229/229/229 233/233/233 234/234/234
f 230/230/230 231/231/231 227/227/227
f 230/230/230 234/234/234 231/231/231
f 231/231/231 236/236/236 232/232/232
f 231/231/231 235/235/235 236/236/236
f 232/232/232 237/237/237 233/233/233
f 232/232/232 236/236/236 237/237/237
f 233/233/233 238/238/238 234/234/234
f 233/233/233 237/237/237 238/238/238
f 234/234/234 235/235/235 231/231/231
f 234/234/234 238/238/238 235/235/235
f 235/235/235 240/240/240 236/236/236
f 235/235/235 239/239/239 240/240/240
f 236/236/236 241/241/241 237/237/237
f 236/236/236 240/240/240 241/241/241
f 237/237/237 242/242/242 238/238/238
f 237/237/237 241/241/241 242/242/242
f 238/238/238 239/239/239 235/235/235
f 238/238/238 242/242/242 239/239/239
f 239/239/239 244/244/244 240/240/240
f 239/239/239 243/243/243 244/244/244
f 240/240/240 245/245/245 241/241/241
f 240/240/240 244/244/244 245/245/245
f 241/241/241 246/246/246 242/242/242
f 241/241/241 245/245/245 246/246/246
f 242/242/242 243/243/243 239/239/239
f 242/242/242 246/246/246 243/243/243
f 243/243/243 248/248/248 244/244/244
f 243/243/243 247/247/247 248/248/248
f 244/244/244 249/249/249 245/245/245
f 244/244/244 248/248/248 249/249/249
f 245/245/245 250/250/250 246/246/246
f 245/245/245 249/249/249 250/250/250
f 246/246/246 247/247/247 243/243/243
f 246/246/246 250/250/250 247/247/247
f 247/247/247 252/252/252 248/248/248
f 247/247/247 251/251/251 252/252/252
f 248/248/248 253/253/253 249/249/249
f 248/248/248 252/252/252 253/253/253
f 249/249/249 254/254/254 250/250/250
f 249/249/249 253/253/253 254/254/254
f 250/250/250 251/251/251 247/247/247
f 250/250/250 254/254/254 251/251/251
f 251/251/251 256/256/256 252/252/252
f 251/251/251 255/255/255 256/256/256
f 252/252/252 257/257/257 253/253/253
f 252/252/252 256/256/256 257/257/257
f 253/253/253 258/258/258 254/254/254
f 253/253/253 257/257/257 258/258/258
f 254/254/254 255/255/255 251/251/251
f 254/254/254 258/258/258 255/255/255
f 255/255/255 260/260/260 256/256/256
f 255/255/255 259/259/259 260/260/260
f 256/256/256 261/261/261 257/257/257
f 256/256/256 260/260/260 261/261/261
f 257/257/257 262/262/262 258/258/258
f 257/257/257 261/261/261 262/262/262
f 258/258/258 259/259/259 255/255/255
f 258/258/258 262/262/262 259/259/259
f 259/259/259 264/264/264 260/260/260
f 259/259/259 263/263/263 264/264/264
f 260/260/260 265/265/265 261/261/261
f 260/260/260 264/264/264 265/265/265
f 261/261/261 266/266/266 262/262/262
f 261/261/261 265/265/265 266/266/266
f 262/262/262 263/263/263 259/259/259
f 262/262/262 266/266/266 263/263/263
f 263/263/263 220/220/220 264/264/264
f 263/263/263 219/219/219 220/220/220
f 264/264/264 221/221/221 265/265/265
f 264/264/264 220/220/220 221/221/221
f 265/265/265 222/222/222 266/266/266
f 265/265/265 221/221/221 222/222/222
f 266/266/266 219/219/219 263/263/263
f 266/266/266 222/222/222 219/219/219
