# HAVENLINE supplied-reference T03 sculpted visual candidate
mtllib boundary_v2.mtl
o diagnostic_panel_joins
s 1
usemtl timber
v -8.8679726 0.10459846 8.8000002 1 1 1
v -8.9264926 0.10459846 8.8685634 1 1 1
v -9.0384926 0.10459846 8.8665369 1 1 1
v -9.0919726 0.10459846 8.8000002 1 1 1
v -9.0384926 0.10459846 8.7334635 1 1 1
v -8.9264926 0.10459846 8.731437 1 1 1
v -8.8675855 1.0873867 8.8000002 1 1 1
v -8.9266862 1.0873867 8.8683299 1 1 1
v -9.0386862 1.0873867 8.8667704 1 1 1
v -9.0915855 1.0873867 8.8000002 1 1 1
v -9.0386862 1.0873867 8.73323 1 1 1
v -8.9266862 1.0873867 8.7316704 1 1 1
v -8.9833326 0.10459846 8.8000002 1 1 1
v -8.9833326 1.4823867 8.8000002 1 1 1
vt 1 0
vt 1.3333333 0
vt 1.6666667 0
vt 2 0
vt 0.33333333 0
vt 0.66666667 0
vt 1 1.8297528
vt 1.3333333 1.8297528
vt 1.6666667 1.8297528
vt 2 1.8297528
vt 0.33333333 1.8297528
vt 0.66666667 1.8297528
vt 1 0
vt 1 2.5651629
vn 0.95830833 -0.075199932 0.27566305
vn 0.22381113 -0.054138713 0.97312773
vn -0.52586126 -0.058588249 0.84855015
vn -0.96427642 -0.07085058 -0.25524728
vn -0.24467096 -0.052609956 -0.96817783
vn 0.50556958 -0.058920199 -0.86077164
vn 0.97385393 0.060151826 -0.21906685
vn 0.47700287 0.04638957 0.87767663
vn -0.27388018 0.042068764 0.96084331
vn -0.97692782 0.056733556 0.20589642
vn -0.49485795 0.045804326 -0.86776585
vn 0.2516391 0.043335811 -0.96685044
vn 0 -1 0
vn 0 1 -7.6414051e-17
f 1/1/1 8/8/8 2/2/2
f 1/1/1 7/7/7 8/8/8
f 2/2/2 9/9/9 3/3/3
f 2/2/2 8/8/8 9/9/9
f 3/3/3 10/10/10 4/4/4
f 3/3/3 9/9/9 10/10/10
f 4/4/4 11/11/11 5/5/5
f 4/4/4 10/10/10 11/11/11
f 5/5/5 12/12/12 6/6/6
f 5/5/5 11/11/11 12/12/12
f 6/6/6 7/7/7 1/1/1
f 6/6/6 12/12/12 7/7/7
f 13/13/13 1/1/1 2/2/2
f 7/7/7 14/14/14 8/8/8
f 13/13/13 2/2/2 3/3/3
f 8/8/8 14/14/14 9/9/9
f 13/13/13 3/3/3 4/4/4
f 9/9/9 14/14/14 10/10/10
f 13/13/13 4/4/4 5/5/5
f 10/10/10 14/14/14 11/11/11
f 13/13/13 5/5/5 6/6/6
f 11/11/11 14/14/14 12/12/12
f 13/13/13 6/6/6 1/1/1
f 12/12/12 14/14/14 7/7/7
usemtl snow
v -8.846603 1.1441634 8.8000002 1 1 1
v -8.9149678 1.09347 8.8824652 1 1 1
v -9.0516974 1.0821728 8.8824652 1 1 1
v -9.1200622 1.1441634 8.8000002 1 1 1
v -9.0516974 1.1558238 8.7175352 1 1 1
v -8.9149678 1.1445266 8.7175352 1 1 1
v -8.968683 1.5132585 8.8000002 1 1 1
v -8.9760078 1.4955158 8.8088357 1 1 1
v -8.9906574 1.4915618 8.8088357 1 1 1
v -8.9979822 1.5132585 8.8000002 1 1 1
v -8.9906574 1.5173397 8.7911647 1 1 1
v -8.9760078 1.5133857 8.7911647 1 1 1
v -8.9833326 1.1173867 8.8000002 1 1 1
v -8.9833326 1.5303867 8.8000002 1 1 1
vt 0 0
vt 0 0
vt 0 0
vt 0 0
vt 0 0
vt 0 0
vt 0 0
vt 0 0
vt 0 0
vt 0 0
vt 0 0
vt 0 0
vt 0 0
vt 0 0
vn 0.99862743 -0.019777004 0.048498663
vn 0.35472811 -0.015091272 0.9348477
vn -0.38950631 -0.015072035 0.92090046
vn -0.99853597 -0.019416183 -0.050486898
vn -0.35099675 -0.01436206 -0.93626653
vn 0.39219458 -0.014646897 -0.91976566
vn 0.82065229 0.27487758 -0.5009712
vn 0.59161253 0.22718251 0.77355202
vn -0.048980811 0.18368155 0.98176472
vn -0.69332913 0.24028165 0.67938166
vn -0.70063385 0.25909454 -0.66481744
vn 0.076528629 0.20869796 -0.9749813
vn -2.5783694e-16 -0.93538408 -0.35363346
vn 6.5888672e-17 0.62928765 0.77717247
f 15/15/15 22/22/22 16/16/16
f 15/15/15 21/21/21 22/22/22
f 16/16/16 23/23/23 17/17/17
f 16/16/16 22/22/22 23/23/23
f 17/17/17 24/24/24 18/18/18
f 17/17/17 23/23/23 24/24/24
f 18/18/18 25/25/25 19/19/19
f 18/18/18 24/24/24 25/25/25
f 19/19/19 26/26/26 20/20/20
f 19/19/19 25/25/25 26/26/26
f 20/20/20 21/21/21 15/15/15
f 20/20/20 26/26/26 21/21/21
f 27/27/27 15/15/15 16/16/16
f 21/21/21 28/28/28 22/22/22
f 27/27/27 16/16/16 17/17/17
f 22/22/22 28/28/28 23/23/23
f 27/27/27 17/17/17 18/18/18
f 23/23/23 28/28/28 24/24/24
f 27/27/27 18/18/18 19/19/19
f 24/24/24 28/28/28 25/25/25
f 27/27/27 19/19/19 20/20/20
f 25/25/25 28/28/28 26/26/26
f 27/27/27 20/20/20 15/15/15
f 26/26/26 28/28/28 21/21/21
usemtl timber_dark
v -9.0449522 0.40097101 8.7962916 1 1 1
v -8.9699523 0.40085142 8.7962916 1 1 1
v -8.9699523 0.40085142 8.8362916 1 1 1
v -9.0449522 0.40097101 8.7962916 1 1 1
v -8.9699523 0.40085142 8.8362916 1 1 1
v -9.0449522 0.40097101 8.8362916 1 1 1
v -8.9699523 0.40085142 8.7962916 1 1 1
v -8.9619396 0.40883866 8.7962916 1 1 1
v -8.9619396 0.40883866 8.8362916 1 1 1
v -8.9699523 0.40085142 8.7962916 1 1 1
v -8.9619396 0.40883866 8.8362916 1 1 1
v -8.9699523 0.40085142 8.8362916 1 1 1
v -8.9619396 0.40883866 8.7962916 1 1 1
v -8.9618221 0.48250613 8.7962916 1 1 1
v -8.9618221 0.48250613 8.8362916 1 1 1
v -8.9619396 0.40883866 8.7962916 1 1 1
v -8.9618221 0.48250613 8.8362916 1 1 1
v -8.9619396 0.40883866 8.8362916 1 1 1
v -8.9618221 0.48250613 8.7962916 1 1 1
v -8.9698094 0.49051888 8.7962916 1 1 1
v -8.9698094 0.49051888 8.8362916 1 1 1
v -8.9618221 0.48250613 8.7962916 1 1 1
v -8.9698094 0.49051888 8.8362916 1 1 1
v -8.9618221 0.48250613 8.8362916 1 1 1
v -8.9698094 0.49051888 8.7962916 1 1 1
v -9.0448093 0.49063847 8.7962916 1 1 1
v -9.0448093 0.49063847 8.8362916 1 1 1
v -8.9698094 0.49051888 8.7962916 1 1 1
v -9.0448093 0.49063847 8.8362916 1 1 1
v -8.9698094 0.49051888 8.8362916 1 1 1
v -9.0448093 0.49063847 8.7962916 1 1 1
v -9.052822 0.48265123 8.7962916 1 1 1
v -9.052822 0.48265123 8.8362916 1 1 1
v -9.0448093 0.49063847 8.7962916 1 1 1
v -9.052822 0.48265123 8.8362916 1 1 1
v -9.0448093 0.49063847 8.8362916 1 1 1
v -9.052822 0.48265123 8.7962916 1 1 1
v -9.0529395 0.40898376 8.7962916 1 1 1
v -9.0529395 0.40898376 8.8362916 1 1 1
v -9.052822 0.48265123 8.7962916 1 1 1
v -9.0529395 0.40898376 8.8362916 1 1 1
v -9.052822 0.48265123 8.8362916 1 1 1
v -9.0529395 0.40898376 8.7962916 1 1 1
v -9.0449522 0.40097101 8.7962916 1 1 1
v -9.0449522 0.40097101 8.8362916 1 1 1
v -9.0529395 0.40898376 8.7962916 1 1 1
v -9.0449522 0.40097101 8.8362916 1 1 1
v -9.0529395 0.40898376 8.8362916 1 1 1
v -9.0449522 0.40097101 8.7962916 1 1 1
v -8.9619396 0.40883866 8.7962916 1 1 1
v -8.9699523 0.40085142 8.7962916 1 1 1
v -9.0449522 0.40097101 8.8362916 1 1 1
v -8.9699523 0.40085142 8.8362916 1 1 1
v -8.9619396 0.40883866 8.8362916 1 1 1
v -9.0449522 0.40097101 8.7962916 1 1 1
v -8.9618221 0.48250613 8.7962916 1 1 1
v -8.9619396 0.40883866 8.7962916 1 1 1
v -9.0449522 0.40097101 8.8362916 1 1 1
v -8.9619396 0.40883866 8.8362916 1 1 1
v -8.9618221 0.48250613 8.8362916 1 1 1
v -9.0449522 0.40097101 8.7962916 1 1 1
v -8.9698094 0.49051888 8.7962916 1 1 1
v -8.9618221 0.48250613 8.7962916 1 1 1
v -9.0449522 0.40097101 8.8362916 1 1 1
v -8.9618221 0.48250613 8.8362916 1 1 1
v -8.9698094 0.49051888 8.8362916 1 1 1
v -9.0449522 0.40097101 8.7962916 1 1 1
v -9.0448093 0.49063847 8.7962916 1 1 1
v -8.9698094 0.49051888 8.7962916 1 1 1
v -9.0449522 0.40097101 8.8362916 1 1 1
v -8.9698094 0.49051888 8.8362916 1 1 1
v -9.0448093 0.49063847 8.8362916 1 1 1
v -9.0449522 0.40097101 8.7962916 1 1 1
v -9.052822 0.48265123 8.7962916 1 1 1
v -9.0448093 0.49063847 8.7962916 1 1 1
v -9.0449522 0.40097101 8.8362916 1 1 1
v -9.0448093 0.49063847 8.8362916 1 1 1
v -9.052822 0.48265123 8.8362916 1 1 1
v -9.0449522 0.40097101 8.7962916 1 1 1
v -9.0529395 0.40898376 8.7962916 1 1 1
v -9.052822 0.48265123 8.7962916 1 1 1
v -9.0449522 0.40097101 8.8362916 1 1 1
v -9.052822 0.48265123 8.8362916 1 1 1
v -9.0529395 0.40898376 8.8362916 1 1 1
vt 0.052260653 -0.0939286
vt 0.051064777 0.093571162
vt 0.051064777 0.093571162
vt 0.052260653 -0.0939286
vt 0.051064777 0.093571162
vt 0.052260653 -0.0939286
vt 0.051064777 0.093571162
vt 0.13093712 0.11360303
vt 0.13093712 0.11360303
vt 0.051064777 0.093571162
vt 0.13093712 0.11360303
vt 0.051064777 0.093571162
vt 0.13093712 0.11360303
vt 0.86761189 0.11389668
vt 0.86761189 0.11389668
vt 0.13093712 0.11360303
vt 0.86761189 0.11389668
vt 0.13093712 0.11360303
vt 0.86761189 0.11389668
vt 0.94773935 0.0939286
vt 0.94773935 0.0939286
vt 0.86761189 0.11389668
vt 0.94773935 0.0939286
vt 0.86761189 0.11389668
vt 0.94773935 0.0939286
vt 0.94893522 -0.093571162
vt 0.94893522 -0.093571162
vt 0.94773935 0.0939286
vt 0.94893522 -0.093571162
vt 0.94773935 0.0939286
vt 0.94893522 -0.093571162
vt 0.86906288 -0.11360303
vt 0.86906288 -0.11360303
vt 0.94893522 -0.093571162
vt 0.86906288 -0.11360303
vt 0.94893522 -0.093571162
vt 0.86906288 -0.11360303
vt 0.13238811 -0.11389668
vt 0.13238811 -0.11389668
vt 0.86906288 -0.11360303
vt 0.13238811 -0.11389668
vt 0.86906288 -0.11360303
vt 0.13238811 -0.11389668
vt 0.052260653 -0.0939286
vt 0.052260653 -0.0939286
vt 0.13238811 -0.11389668
vt 0.052260653 -0.0939286
vt 0.13238811 -0.11389668
vt 0.052260653 -0.0939286
vt 0.13093712 0.11360303
vt 0.051064777 0.093571162
vt 0.052260653 -0.0939286
vt 0.051064777 0.093571162
vt 0.13093712 0.11360303
vt 0.052260653 -0.0939286
vt 0.86761189 0.11389668
vt 0.13093712 0.11360303
vt 0.052260653 -0.0939286
vt 0.13093712 0.11360303
vt 0.86761189 0.11389668
vt 0.052260653 -0.0939286
vt 0.94773935 0.0939286
vt 0.86761189 0.11389668
vt 0.052260653 -0.0939286
vt 0.86761189 0.11389668
vt 0.94773935 0.0939286
vt 0.052260653 -0.0939286
vt 0.94893522 -0.093571162
vt 0.94773935 0.0939286
vt 0.052260653 -0.0939286
vt 0.94773935 0.0939286
vt 0.94893522 -0.093571162
vt 0.052260653 -0.0939286
vt 0.86906288 -0.11360303
vt 0.94893522 -0.093571162
vt 0.052260653 -0.0939286
vt 0.94893522 -0.093571162
vt 0.86906288 -0.11360303
vt 0.052260653 -0.0939286
vt 0.13238811 -0.11389668
vt 0.86906288 -0.11360303
vt 0.052260653 -0.0939286
vt 0.86906288 -0.11360303
vt 0.13238811 -0.11389668
vn -0.0015945007 -0.99999873 0
vn -0.0015945007 -0.99999873 0
vn -0.0015945007 -0.99999873 0
vn -0.0015945007 -0.99999873 0
vn -0.0015945007 -0.99999873 0
vn -0.0015945007 -0.99999873 0
vn 0.7059784 -0.70823336 0
vn 0.7059784 -0.70823336 0
vn 0.7059784 -0.70823336 0
vn 0.7059784 -0.70823336 0
vn 0.7059784 -0.70823336 0
vn 0.7059784 -0.70823336 0
vn 0.99999873 -0.0015945007 0
vn 0.99999873 -0.0015945007 0
vn 0.99999873 -0.0015945007 0
vn 0.99999873 -0.0015945007 0
vn 0.99999873 -0.0015945007 0
vn 0.99999873 -0.0015945007 0
vn 0.70823336 0.7059784 0
vn 0.70823336 0.7059784 0
vn 0.70823336 0.7059784 0
vn 0.70823336 0.7059784 -0
vn 0.70823336 0.7059784 -0
vn 0.70823336 0.7059784 -0
vn 0.0015945007 0.99999873 0
vn 0.0015945007 0.99999873 0
vn 0.0015945007 0.99999873 0
vn 0.0015945007 0.99999873 -0
vn 0.0015945007 0.99999873 -0
vn 0.0015945007 0.99999873 -0
vn -0.7059784 0.70823336 0
vn -0.7059784 0.70823336 0
vn -0.7059784 0.70823336 0
vn -0.7059784 0.70823336 0
vn -0.7059784 0.70823336 0
vn -0.7059784 0.70823336 0
vn -0.99999873 0.0015945007 0
vn -0.99999873 0.0015945007 0
vn -0.99999873 0.0015945007 0
vn -0.99999873 0.0015945007 0
vn -0.99999873 0.0015945007 0
vn -0.99999873 0.0015945007 0
vn -0.70823336 -0.7059784 0
vn -0.70823336 -0.7059784 0
vn -0.70823336 -0.7059784 0
vn -0.70823336 -0.7059784 0
vn -0.70823336 -0.7059784 0
vn -0.70823336 -0.7059784 0
vn 0 0 -1
vn 0 0 -1
vn 0 0 -1
vn -0 0 1
vn -0 0 1
vn -0 0 1
vn 0 0 -1
vn 0 0 -1
vn 0 0 -1
vn 0 0 1
vn 0 0 1
vn 0 0 1
vn 0 0 -1
vn 0 0 -1
vn 0 0 -1
vn 0 0 1
vn 0 0 1
vn 0 0 1
vn 0 0 -1
vn 0 0 -1
vn 0 0 -1
vn 0 0 1
vn 0 0 1
vn 0 0 1
vn 0 0 -1
vn 0 0 -1
vn 0 0 -1
vn 0 -0 1
vn 0 -0 1
vn 0 -0 1
vn 0 0 -1
vn 0 0 -1
vn 0 0 -1
vn 0 0 1
vn 0 0 1
vn 0 0 1
f 29/29/29 30/30/30 31/31/31
f 32/32/32 33/33/33 34/34/34
f 35/35/35 36/36/36 37/37/37
f 38/38/38 39/39/39 40/40/40
f 41/41/41 42/42/42 43/43/43
f 44/44/44 45/45/45 46/46/46
f 47/47/47 48/48/48 49/49/49
f 50/50/50 51/51/51 52/52/52
f 53/53/53 54/54/54 55/55/55
f 56/56/56 57/57/57 58/58/58
f 59/59/59 60/60/60 61/61/61
f 62/62/62 63/63/63 64/64/64
f 65/65/65 66/66/66 67/67/67
f 68/68/68 69/69/69 70/70/70
f 71/71/71 72/72/72 73/73/73
f 74/74/74 75/75/75 76/76/76
f 77/77/77 78/78/78 79/79/79
f 80/80/80 81/81/81 82/82/82
f 83/83/83 84/84/84 85/85/85
f 86/86/86 87/87/87 88/88/88
f 89/89/89 90/90/90 91/91/91
f 92/92/92 93/93/93 94/94/94
f 95/95/95 96/96/96 97/97/97
f 98/98/98 99/99/99 100/100/100
f 101/101/101 102/102/102 103/103/103
f 104/104/104 105/105/105 106/106/106
f 107/107/107 108/108/108 109/109/109
f 110/110/110 111/111/111 112/112/112
usemtl rope
v -9.0856735 0.50001595 8.8620002 0.84 0.76 0.61
v -9.0746622 0.51610944 8.8732585 0.84 0.76 0.61
v -9.0746622 0.51610944 8.8507419 0.84 0.76 0.61
v -8.8956735 0.37001595 8.8620002 0.84 0.76 0.61
v -8.8846622 0.38610944 8.8732585 0.84 0.76 0.61
v -8.8846622 0.38610944 8.8507419 0.84 0.76 0.61
v -9.0783326 0.51074494 8.8620002 0.84 0.76 0.61
v -8.8883326 0.38074494 8.8620002 0.84 0.76 0.61
vt 0 0
vt 0 0
vt 0 0
vt 0 0
vt 0 0
vt 0 0
vt 0 0
vt 0 0
vn -0.51566334 -0.69595744 0.49973449
vn 0.46187852 0.73275758 0.49973449
vn -0.026892413 0.018400072 -0.99946898
vn -0.46187852 -0.73275758 -0.49973449
vn 0.026892413 -0.018400072 0.99946898
vn 0.51566334 0.69595744 -0.49973449
vn -0.82530726 0.56468392 0
vn 0.82530726 -0.56468392 0
f 113/113/113 117/117/117 114/114/114
f 113/113/113 116/116/116 117/117/117
f 114/114/114 118/118/118 115/115/115
f 114/114/114 117/117/117 118/118/118
f 115/115/115 116/116/116 113/113/113
f 115/115/115 118/118/118 116/116/116
f 114/114/114 119/119/119 113/113/113
f 115/115/115 119/119/119 114/114/114
f 113/113/113 119/119/119 115/115/115
f 120/120/120 117/117/117 116/116/116
f 120/120/120 118/118/118 117/117/117
f 120/120/120 116/116/116 118/118/118
usemtl rope
v -9.0709917 0.37001595 8.8620002 0.84 0.76 0.61
v -9.0820031 0.38610944 8.8732585 0.84 0.76 0.61
v -9.0820031 0.38610944 8.8507419 0.84 0.76 0.61
v -8.8809917 0.50001595 8.8620002 0.84 0.76 0.61
v -8.8920031 0.51610944 8.8732585 0.84 0.76 0.61
v -8.8920031 0.51610944 8.8507419 0.84 0.76 0.61
v -9.0783326 0.38074494 8.8620002 0.84 0.76 0.61
v -8.8883326 0.51074494 8.8620002 0.84 0.76 0.61
vt 0 0
vt 0 0
vt 0 0
vt 0 0
vt 0 0
vt 0 0
vt 0 0
vt 0 0
vn 0.46187852 -0.73275758 0.49973449
vn -0.51566334 0.69595744 0.49973449
vn -0.026892413 -0.018400072 -0.99946898
vn 0.51566334 -0.69595744 -0.49973449
vn 0.026892413 0.018400072 0.99946898
vn -0.46187852 0.73275758 -0.49973449
vn -0.82530726 -0.56468392 0
vn 0.82530726 0.56468392 0
f 121/121/121 125/125/125 122/122/122
f 121/121/121 124/124/124 125/125/125
f 122/122/122 126/126/126 123/123/123
f 122/122/122 125/125/125 126/126/126
f 123/123/123 124/124/124 121/121/121
f 123/123/123 126/126/126 124/124/124
f 122/122/122 127/127/127 121/121/121
f 123/123/123 127/127/127 122/122/122
f 121/121/121 127/127/127 123/123/123
f 128/128/128 125/125/125 124/124/124
f 128/128/128 126/126/126 125/125/125
f 128/128/128 124/124/124 126/126/126
usemtl timber_dark
v -9.1037405 0.96285051 8.7962916 1 1 1
v -9.0386408 0.92560774 8.7962916 1 1 1
v -9.0386408 0.92560774 8.8362916 1 1 1
v -9.1037405 0.96285051 8.7962916 1 1 1
v -9.0386408 0.92560774 8.8362916 1 1 1
v -9.1037405 0.96285051 8.8362916 1 1 1
v -9.0386408 0.92560774 8.7962916 1 1 1
v -9.0277242 0.92857915 8.7962916 1 1 1
v -9.0277242 0.92857915 8.8362916 1 1 1
v -9.0386408 0.92560774 8.7962916 1 1 1
v -9.0277242 0.92857915 8.8362916 1 1 1
v -9.0386408 0.92560774 8.8362916 1 1 1
v -9.0277242 0.92857915 8.7962916 1 1 1
v -8.9878958 0.99819863 8.7962916 1 1 1
v -8.9878958 0.99819863 8.8362916 1 1 1
v -9.0277242 0.92857915 8.7962916 1 1 1
v -8.9878958 0.99819863 8.8362916 1 1 1
v -9.0277242 0.92857915 8.8362916 1 1 1
v -8.9878958 0.99819863 8.7962916 1 1 1
v -8.9908672 1.0091152 8.7962916 1 1 1
v -8.9908672 1.0091152 8.8362916 1 1 1
v -8.9878958 0.99819863 8.7962916 1 1 1
v -8.9908672 1.0091152 8.8362916 1 1 1
v -8.9878958 0.99819863 8.8362916 1 1 1
v -8.9908672 1.0091152 8.7962916 1 1 1
v -9.0559669 1.0463579 8.7962916 1 1 1
v -9.0559669 1.0463579 8.8362916 1 1 1
v -8.9908672 1.0091152 8.7962916 1 1 1
v -9.0559669 1.0463579 8.8362916 1 1 1
v -8.9908672 1.0091152 8.8362916 1 1 1
v -9.0559669 1.0463579 8.7962916 1 1 1
v -9.0668835 1.0433865 8.7962916 1 1 1
v -9.0668835 1.0433865 8.8362916 1 1 1
v -9.0559669 1.0463579 8.7962916 1 1 1
v -9.0668835 1.0433865 8.8362916 1 1 1
v -9.0559669 1.0463579 8.8362916 1 1 1
v -9.0668835 1.0433865 8.7962916 1 1 1
v -9.1067119 0.97376705 8.7962916 1 1 1
v -9.1067119 0.97376705 8.8362916 1 1 1
v -9.0668835 1.0433865 8.7962916 1 1 1
v -9.1067119 0.97376705 8.8362916 1 1 1
v -9.0668835 1.0433865 8.8362916 1 1 1
v -9.1067119 0.97376705 8.7962916 1 1 1
v -9.1037405 0.96285051 8.7962916 1 1 1
v -9.1037405 0.96285051 8.8362916 1 1 1
v -9.1067119 0.97376705 8.7962916 1 1 1
v -9.1037405 0.96285051 8.8362916 1 1 1
v -9.1067119 0.97376705 8.8362916 1 1 1
v -9.1037405 0.96285051 8.7962916 1 1 1
v -9.0277242 0.92857915 8.7962916 1 1 1
v -9.0386408 0.92560774 8.7962916 1 1 1
v -9.1037405 0.96285051 8.8362916 1 1 1
v -9.0386408 0.92560774 8.8362916 1 1 1
v -9.0277242 0.92857915 8.8362916 1 1 1
v -9.1037405 0.96285051 8.7962916 1 1 1
v -8.9878958 0.99819863 8.7962916 1 1 1
v -9.0277242 0.92857915 8.7962916 1 1 1
v -9.1037405 0.96285051 8.8362916 1 1 1
v -9.0277242 0.92857915 8.8362916 1 1 1
v -8.9878958 0.99819863 8.8362916 1 1 1
v -9.1037405 0.96285051 8.7962916 1 1 1
v -8.9908672 1.0091152 8.7962916 1 1 1
v -8.9878958 0.99819863 8.7962916 1 1 1
v -9.1037405 0.96285051 8.8362916 1 1 1
v -8.9878958 0.99819863 8.8362916 1 1 1
v -8.9908672 1.0091152 8.8362916 1 1 1
v -9.1037405 0.96285051 8.7962916 1 1 1
v -9.0559669 1.0463579 8.7962916 1 1 1
v -8.9908672 1.0091152 8.7962916 1 1 1
v -9.1037405 0.96285051 8.8362916 1 1 1
v -8.9908672 1.0091152 8.8362916 1 1 1
v -9.0559669 1.0463579 8.8362916 1 1 1
v -9.1037405 0.96285051 8.7962916 1 1 1
v -9.0668835 1.0433865 8.7962916 1 1 1
v -9.0559669 1.0463579 8.7962916 1 1 1
v -9.1037405 0.96285051 8.8362916 1 1 1
v -9.0559669 1.0463579 8.8362916 1 1 1
v -9.0668835 1.0433865 8.8362916 1 1 1
v -9.1037405 0.96285051 8.7962916 1 1 1
v -9.1067119 0.97376705 8.7962916 1 1 1
v -9.0668835 1.0433865 8.7962916 1 1 1
v -9.1037405 0.96285051 8.8362916 1 1 1
v -9.0668835 1.0433865 8.8362916 1 1 1
v -9.1067119 0.97376705 8.8362916 1 1 1
vt 0.26867675 -0.14109166
vt -0.10375098 0.021657686
vt -0.10375098 0.021657686
vt 0.26867675 -0.14109166
vt -0.10375098 0.021657686
vt 0.26867675 -0.14109166
vt -0.10375098 0.021657686
vt -0.07403689 0.048949023
vt -0.07403689 0.048949023
vt -0.10375098 0.021657686
vt -0.07403689 0.048949023
vt -0.10375098 0.021657686
vt -0.07403689 0.048949023
vt 0.6221579 0.14852018
vt 0.6221579 0.14852018
vt -0.07403689 0.048949023
vt 0.6221579 0.14852018
vt -0.07403689 0.048949023
vt 0.6221579 0.14852018
vt 0.73132325 0.14109166
vt 0.73132325 0.14109166
vt 0.6221579 0.14852018
vt 0.73132325 0.14109166
vt 0.6221579 0.14852018
vt 0.73132325 0.14109166
vt 1.103751 -0.021657686
vt 1.103751 -0.021657686
vt 0.73132325 0.14109166
vt 1.103751 -0.021657686
vt 0.73132325 0.14109166
vt 1.103751 -0.021657686
vt 1.0740369 -0.048949023
vt 1.0740369 -0.048949023
vt 1.103751 -0.021657686
vt 1.0740369 -0.048949023
vt 1.103751 -0.021657686
vt 1.0740369 -0.048949023
vt 0.3778421 -0.14852018
vt 0.3778421 -0.14852018
vt 1.0740369 -0.048949023
vt 0.3778421 -0.14852018
vt 1.0740369 -0.048949023
vt 0.3778421 -0.14852018
vt 0.26867675 -0.14109166
vt 0.26867675 -0.14109166
vt 0.3778421 -0.14852018
vt 0.26867675 -0.14109166
vt 0.3778421 -0.14852018
vt 0.26867675 -0.14109166
vt -0.07403689 0.048949023
vt -0.10375098 0.021657686
vt 0.26867675 -0.14109166
vt -0.10375098 0.021657686
vt -0.07403689 0.048949023
vt 0.26867675 -0.14109166
vt 0.6221579 0.14852018
vt -0.07403689 0.048949023
vt 0.26867675 -0.14109166
vt -0.07403689 0.048949023
vt 0.6221579 0.14852018
vt 0.26867675 -0.14109166
vt 0.73132325 0.14109166
vt 0.6221579 0.14852018
vt 0.26867675 -0.14109166
vt 0.6221579 0.14852018
vt 0.73132325 0.14109166
vt 0.26867675 -0.14109166
vt 1.103751 -0.021657686
vt 0.73132325 0.14109166
vt 0.26867675 -0.14109166
vt 0.73132325 0.14109166
vt 1.103751 -0.021657686
vt 0.26867675 -0.14109166
vt 1.0740369 -0.048949023
vt 1.103751 -0.021657686
vt 0.26867675 -0.14109166
vt 1.103751 -0.021657686
vt 1.0740369 -0.048949023
vt 0.26867675 -0.14109166
vt 0.3778421 -0.14852018
vt 1.0740369 -0.048949023
vt 0.26867675 -0.14109166
vt 1.0740369 -0.048949023
vt 0.3778421 -0.14852018
vn -0.49657032 -0.8679965 0
vn -0.49657032 -0.8679965 0
vn -0.49657032 -0.8679965 0
vn -0.49657032 -0.8679965 0
vn -0.49657032 -0.8679965 0
vn -0.49657032 -0.8679965 0
vn 0.26263797 -0.96489445 0
vn 0.26263797 -0.96489445 0
vn 0.26263797 -0.96489445 0
vn 0.26263797 -0.96489445 0
vn 0.26263797 -0.96489445 0
vn 0.26263797 -0.96489445 0
vn 0.8679965 -0.49657032 0
vn 0.8679965 -0.49657032 0
vn 0.8679965 -0.49657032 0
vn 0.8679965 -0.49657032 0
vn 0.8679965 -0.49657032 0
vn 0.8679965 -0.49657032 0
vn 0.96489445 0.26263797 0
vn 0.96489445 0.26263797 0
vn 0.96489445 0.26263797 0
vn 0.96489445 0.26263797 -0
vn 0.96489445 0.26263797 -0
vn 0.96489445 0.26263797 -0
vn 0.49657032 0.8679965 0
vn 0.49657032 0.8679965 0
vn 0.49657032 0.8679965 0
vn 0.49657032 0.8679965 -0
vn 0.49657032 0.8679965 -0
vn 0.49657032 0.8679965 -0
vn -0.26263797 0.96489445 0
vn -0.26263797 0.96489445 0
vn -0.26263797 0.96489445 0
vn -0.26263797 0.96489445 0
vn -0.26263797 0.96489445 0
vn -0.26263797 0.96489445 0
vn -0.8679965 0.49657032 0
vn -0.8679965 0.49657032 0
vn -0.8679965 0.49657032 0
vn -0.8679965 0.49657032 0
vn -0.8679965 0.49657032 0
vn -0.8679965 0.49657032 0
vn -0.96489445 -0.26263797 0
vn -0.96489445 -0.26263797 0
vn -0.96489445 -0.26263797 0
vn -0.96489445 -0.26263797 0
vn -0.96489445 -0.26263797 0
vn -0.96489445 -0.26263797 0
vn 0 0 -1
vn 0 0 -1
vn 0 0 -1
vn 0 0 1
vn 0 0 1
vn 0 0 1
vn 0 0 -1
vn 0 0 -1
vn 0 0 -1
vn -0 0 1
vn -0 0 1
vn -0 0 1
vn 0 0 -1
vn 0 0 -1
vn 0 0 -1
vn 0 0 1
vn 0 0 1
vn 0 0 1
vn 0 0 -1
vn 0 0 -1
vn 0 0 -1
vn 0 0 1
vn 0 0 1
vn 0 0 1
vn 0 0 -1
vn 0 0 -1
vn 0 0 -1
vn 0 0 1
vn 0 0 1
vn 0 0 1
vn 0 0 -1
vn 0 0 -1
vn 0 0 -1
vn 0 -0 1
vn 0 -0 1
vn 0 -0 1
f 129/129/129 130/130/130 131/131/131
f 132/132/132 133/133/133 134/134/134
f 135/135/135 136/136/136 137/137/137
f 138/138/138 139/139/139 140/140/140
f 141/141/141 142/142/142 143/143/143
f 144/144/144 145/145/145 146/146/146
f 147/147/147 148/148/148 149/149/149
f 150/150/150 151/151/151 152/152/152
f 153/153/153 154/154/154 155/155/155
f 156/156/156 157/157/157 158/158/158
f 159/159/159 160/160/160 161/161/161
f 162/162/162 163/163/163 164/164/164
f 165/165/165 166/166/166 167/167/167
f 168/168/168 169/169/169 170/170/170
f 171/171/171 172/172/172 173/173/173
f 174/174/174 175/175/175 176/176/176
f 177/177/177 178/178/178 179/179/179
f 180/180/180 181/181/181 182/182/182
f 183/183/183 184/184/184 185/185/185
f 186/186/186 187/187/187 188/188/188
f 189/189/189 190/190/190 191/191/191
f 192/192/192 193/193/193 194/194/194
f 195/195/195 196/196/196 197/197/197
f 198/198/198 199/199/199 200/200/200
f 201/201/201 202/202/202 203/203/203
f 204/204/204 205/205/205 206/206/206
f 207/207/207 208/208/208 209/209/209
f 210/210/210 211/211/211 212/212/212
usemtl rope
v -9.0856735 1.0402538 8.8620002 0.84 0.76 0.61
v -9.0746622 1.0563473 8.8732585 0.84 0.76 0.61
v -9.0746622 1.0563473 8.8507419 0.84 0.76 0.61
v -8.8956735 0.91025384 8.8620002 0.84 0.76 0.61
v -8.8846622 0.92634734 8.8732585 0.84 0.76 0.61
v -8.8846622 0.92634734 8.8507419 0.84 0.76 0.61
v -9.0783326 1.0509828 8.8620002 0.84 0.76 0.61
v -8.8883326 0.92098284 8.8620002 0.84 0.76 0.61
vt 0 0
vt 0 0
vt 0 0
vt 0 0
vt 0 0
vt 0 0
vt 0 0
vt 0 0
vn -0.51566334 -0.69595744 0.49973449
vn 0.46187852 0.73275758 0.49973449
vn -0.026892413 0.018400072 -0.99946898
vn -0.46187852 -0.73275758 -0.49973449
vn 0.026892413 -0.018400072 0.99946898
vn 0.51566334 0.69595744 -0.49973449
vn -0.82530726 0.56468392 0
vn 0.82530726 -0.56468392 0
f 213/213/213 217/217/217 214/214/214
f 213/213/213 216/216/216 217/217/217
f 214/214/214 218/218/218 215/215/215
f 214/214/214 217/217/217 218/218/218
f 215/215/215 216/216/216 213/213/213
f 215/215/215 218/218/218 216/216/216
f 214/214/214 219/219/219 213/213/213
f 215/215/215 219/219/219 214/214/214
f 213/213/213 219/219/219 215/215/215
f 220/220/220 217/217/217 216/216/216
f 220/220/220 218/218/218 217/217/217
f 220/220/220 216/216/216 218/218/218
usemtl rope
v -9.0709917 0.91025384 8.8620002 0.84 0.76 0.61
v -9.0820031 0.92634734 8.8732585 0.84 0.76 0.61
v -9.0820031 0.92634734 8.8507419 0.84 0.76 0.61
v -8.8809917 1.0402538 8.8620002 0.84 0.76 0.61
v -8.8920031 1.0563473 8.8732585 0.84 0.76 0.61
v -8.8920031 1.0563473 8.8507419 0.84 0.76 0.61
v -9.0783326 0.92098284 8.8620002 0.84 0.76 0.61
v -8.8883326 1.0509828 8.8620002 0.84 0.76 0.61
vt 0 0
vt 0 0
vt 0 0
vt 0 0
vt 0 0
vt 0 0
vt 0 0
vt 0 0
vn 0.46187852 -0.73275758 0.49973449
vn -0.51566334 0.69595744 0.49973449
vn -0.026892413 -0.018400072 -0.99946898
vn 0.51566334 -0.69595744 -0.49973449
vn 0.026892413 0.018400072 0.99946898
vn -0.46187852 0.73275758 -0.49973449
vn -0.82530726 -0.56468392 0
vn 0.82530726 0.56468392 0
f 221/221/221 225/225/225 222/222/222
f 221/221/221 224/224/224 225/225/225
f 222/222/222 226/226/226 223/223/223
f 222/222/222 225/225/225 226/226/226
f 223/223/223 224/224/224 221/221/221
f 223/223/223 226/226/226 224/224/224
f 222/222/222 227/227/227 221/221/221
f 223/223/223 227/227/227 222/222/222
f 221/221/221 227/227/227 223/223/223
f 228/228/228 225/225/225 224/224/224
f 228/228/228 226/226/226 225/225/225
f 228/228/228 224/224/224 226/226/226
usemtl timber
v -5.4497598 0.25990199 8.8000002 1 1 1
v -5.5111418 0.25990199 8.8669764 1 1 1
v -5.6222819 0.25990199 8.8670867 1 1 1
v -5.6737598 0.25990199 8.8000002 1 1 1
v -5.6231418 0.25990199 8.7318764 1 1 1
v -5.5102819 0.25990199 8.7319867 1 1 1
v -5.4528787 1.234871 8.8000002 1 1 1
v -5.5095823 1.234871 8.8688575 1 1 1
v -5.6207224 1.234871 8.8652056 1 1 1
v -5.6768787 1.234871 8.8000002 1 1 1
v -5.6215823 1.234871 8.7337575 1 1 1
v -5.5087224 1.234871 8.7301056 1 1 1
v -5.5666661 0.25990199 8.8000002 1 1 1
v -5.5666661 1.629871 8.8000002 1 1 1
vt 1 0.173
vt 1.3333333 0.173
vt 1.6666667 0.173
vt 2 0.173
vt 0.33333333 0.173
vt 0.66666667 0.173
vt 1 1.998827
vt 1.3333333 1.998827
vt 1.6666667 1.998827
vt 2 1.998827
vt 0.33333333 1.998827
vt 0.66666667 1.998827
vt 1 0.173
vt 1 2.7385446
vn 0.95964055 -0.075200088 0.27098887
vn 0.21791131 -0.054592399 0.97444052
vn -0.5162667 -0.057796452 0.85447543
vn -0.96286762 -0.072037502 -0.26018561
vn -0.25068252 -0.052994325 -0.96661775
vn 0.51487314 -0.060637579 -0.85511914
vn 0.97369304 0.060765659 -0.21961191
vn 0.4702746 0.045835281 0.88132907
vn -0.2686246 0.04231758 0.96231494
vn -0.97721906 0.056839775 0.2044802
vn -0.5010137 0.046928913 -0.86416604
vn 0.25710971 0.04363916 -0.96539641
vn 0 -1 0
vn -7.6425465e-17 1 -1.5285093e-16
f 229/229/229 236/236/236 230/230/230
f 229/229/229 235/235/235 236/236/236
f 230/230/230 237/237/237 231/231/231
f 230/230/230 236/236/236 237/237/237
f 231/231/231 238/238/238 232/232/232
f 231/231/231 237/237/237 238/238/238
f 232/232/232 239/239/239 233/233/233
f 232/232/232 238/238/238 239/239/239
f 233/233/233 240/240/240 234/234/234
f 233/233/233 239/239/239 240/240/240
f 234/234/234 235/235/235 229/229/229
f 234/234/234 240/240/240 235/235/235
f 241/241/241 229/229/229 230/230/230
f 235/235/235 242/242/242 236/236/236
f 241/241/241 230/230/230 231/231/231
f 236/236/236 242/242/242 237/237/237
f 241/241/241 231/231/231 232/232/232
f 237/237/237 242/242/242 238/238/238
f 241/241/241 232/232/232 233/233/233
f 238/238/238 242/242/242 239/239/239
f 241/241/241 233/233/233 234/234/234
f 239/239/239 242/242/242 240/240/240
f 241/241/241 234/234/234 229/229/229
f 240/240/240 242/242/242 235/235/235
usemtl snow
v -5.4299365 1.3079516 8.8000002 1 1 1
v -5.4983013 1.2524868 8.8824652 1 1 1
v -5.6350309 1.2248857 8.8824652 1 1 1
v -5.7033957 1.2753438 8.8000002 1 1 1
v -5.6350309 1.2917756 8.7175352 1 1 1
v -5.4983013 1.2967823 8.7175352 1 1 1
v -5.5520165 1.6664492 8.8000002 1 1 1
v -5.5593413 1.6470365 8.8088357 1 1 1
v -5.5739909 1.6373762 8.8088357 1 1 1
v -5.5813157 1.6550365 8.8000002 1 1 1
v -5.5739909 1.6607876 8.7911647 1 1 1
v -5.5593413 1.66254 8.7911647 1 1 1
v -5.5666661 1.264871 8.8000002 1 1 1
v -5.5666661 1.677871 8.8000002 1 1 1
vt 0 0
vt 0 0
vt 0 0
vt 0 0
vt 0 0
vt 0 0
vt 0 0
vt 0 0
vt 0 0
vt 0 0
vt 0 0
vt 0 0
vt 0 0
vt 0 0
vn 0.99855284 -0.01955777 0.050097032
vn 0.35431887 -0.015026584 0.93500393
vn -0.38896831 -0.015178576 0.92112608
vn -0.99861049 -0.01963225 -0.0489046
vn -0.35137469 -0.014421163 -0.93612385
vn 0.39269124 -0.014547636 -0.9195553
vn 0.80255331 0.27925272 -0.52718698
vn 0.57148256 0.23069398 0.78752014
vn -0.07961107 0.18490061 0.97952736
vn -0.71416137 0.23828633 0.65817412
vn -0.71783585 0.25355731 -0.64839832
vn 0.042003017 0.20711979 -0.9774135
vn 0.11228108 -0.94162387 -0.31739162
vn -0.25333691 0.65037601 0.71612251
f 243/243/243 250/250/250 244/244/244
f 243/243/243 249/249/249 250/250/250
f 244/244/244 251/251/251 245/245/245
f 244/244/244 250/250/250 251/251/251
f 245/245/245 252/252/252 246/246/246
f 245/245/245 251/251/251 252/252/252
f 246/246/246 253/253/253 247/247/247
f 246/246/246 252/252/252 253/253/253
f 247/247/247 254/254/254 248/248/248
f 247/247/247 253/253/253 254/254/254
f 248/248/248 249/249/249 243/243/243
f 248/248/248 254/254/254 249/249/249
f 255/255/255 243/243/243 244/244/244
f 249/249/249 256/256/256 250/250/250
f 255/255/255 244/244/244 245/245/245
f 250/250/250 256/256/256 251/251/251
f 255/255/255 245/245/245 246/246/246
f 251/251/251 256/256/256 252/252/252
f 255/255/255 246/246/246 247/247/247
f 252/252/252 256/256/256 253/253/253
f 255/255/255 247/247/247 248/248/248
f 253/253/253 256/256/256 254/254/254
f 255/255/255 248/248/248 243/243/243
f 254/254/254 256/256/256 249/249/249
usemtl timber_dark
v -5.595706 0.64116029 8.7962916 1 1 1
v -5.6145292 0.5685608 8.7962916 1 1 1
v -5.6145292 0.5685608 8.8362916 1 1 1
v -5.595706 0.64116029 8.7962916 1 1 1
v -5.6145292 0.5685608 8.8362916 1 1 1
v -5.595706 0.64116029 8.8362916 1 1 1
v -5.6145292 0.5685608 8.7962916 1 1 1
v -5.608793 0.55880904 8.7962916 1 1 1
v -5.608793 0.55880904 8.8362916 1 1 1
v -5.6145292 0.5685608 8.7962916 1 1 1
v -5.608793 0.55880904 8.8362916 1 1 1
v -5.6145292 0.5685608 8.8362916 1 1 1
v -5.608793 0.55880904 8.7962916 1 1 1
v -5.5270895 0.53762537 8.7962916 1 1 1
v -5.5270895 0.53762537 8.8362916 1 1 1
v -5.608793 0.55880904 8.7962916 1 1 1
v -5.5270895 0.53762537 8.8362916 1 1 1
v -5.608793 0.55880904 8.8362916 1 1 1
v -5.5270895 0.53762537 8.7962916 1 1 1
v -5.5173377 0.5433615 8.7962916 1 1 1
v -5.5173377 0.5433615 8.8362916 1 1 1
v -5.5270895 0.53762537 8.7962916 1 1 1
v -5.5173377 0.5433615 8.8362916 1 1 1
v -5.5270895 0.53762537 8.8362916 1 1 1
v -5.5173377 0.5433615 8.7962916 1 1 1
v -5.4985145 0.615961 8.7962916 1 1 1
v -5.4985145 0.615961 8.8362916 1 1 1
v -5.5173377 0.5433615 8.7962916 1 1 1
v -5.4985145 0.615961 8.8362916 1 1 1
v -5.5173377 0.5433615 8.8362916 1 1 1
v -5.4985145 0.615961 8.7962916 1 1 1
v -5.5042506 0.62571275 8.7962916 1 1 1
v -5.5042506 0.62571275 8.8362916 1 1 1
v -5.4985145 0.615961 8.7962916 1 1 1
v -5.5042506 0.62571275 8.8362916 1 1 1
v -5.4985145 0.615961 8.8362916 1 1 1
v -5.5042506 0.62571275 8.7962916 1 1 1
v -5.5859542 0.64689643 8.7962916 1 1 1
v -5.5859542 0.64689643 8.8362916 1 1 1
v -5.5042506 0.62571275 8.7962916 1 1 1
v -5.5859542 0.64689643 8.8362916 1 1 1
v -5.5042506 0.62571275 8.8362916 1 1 1
v -5.5859542 0.64689643 8.7962916 1 1 1
v -5.595706 0.64116029 8.7962916 1 1 1
v -5.595706 0.64116029 8.8362916 1 1 1
v -5.5859542 0.64689643 8.7962916 1 1 1
v -5.595706 0.64116029 8.8362916 1 1 1
v -5.5859542 0.64689643 8.8362916 1 1 1
v -5.595706 0.64116029 8.7962916 1 1 1
v -5.608793 0.55880904 8.7962916 1 1 1
v -5.6145292 0.5685608 8.7962916 1 1 1
v -5.595706 0.64116029 8.8362916 1 1 1
v -5.6145292 0.5685608 8.8362916 1 1 1
v -5.608793 0.55880904 8.8362916 1 1 1
v -5.595706 0.64116029 8.7962916 1 1 1
v -5.5270895 0.53762537 8.7962916 1 1 1
v -5.608793 0.55880904 8.7962916 1 1 1
v -5.595706 0.64116029 8.8362916 1 1 1
v -5.608793 0.55880904 8.8362916 1 1 1
v -5.5270895 0.53762537 8.8362916 1 1 1
v -5.595706 0.64116029 8.7962916 1 1 1
v -5.5173377 0.5433615 8.7962916 1 1 1
v -5.5270895 0.53762537 8.7962916 1 1 1
v -5.595706 0.64116029 8.8362916 1 1 1
v -5.5270895 0.53762537 8.8362916 1 1 1
v -5.5173377 0.5433615 8.8362916 1 1 1
v -5.595706 0.64116029 8.7962916 1 1 1
v -5.4985145 0.615961 8.7962916 1 1 1
v -5.5173377 0.5433615 8.7962916 1 1 1
v -5.595706 0.64116029 8.8362916 1 1 1
v -5.5173377 0.5433615 8.8362916 1 1 1
v -5.4985145 0.615961 8.8362916 1 1 1
v -5.595706 0.64116029 8.7962916 1 1 1
v -5.5042506 0.62571275 8.7962916 1 1 1
v -5.4985145 0.615961 8.7962916 1 1 1
v -5.595706 0.64116029 8.8362916 1 1 1
v -5.4985145 0.615961 8.8362916 1 1 1
v -5.5042506 0.62571275 8.8362916 1 1 1
v -5.595706 0.64116029 8.7962916 1 1 1
v -5.5859542 0.64689643 8.7962916 1 1 1
v -5.5042506 0.62571275 8.7962916 1 1 1
v -5.595706 0.64116029 8.8362916 1 1 1
v -5.5042506 0.62571275 8.8362916 1 1 1
v -5.5859542 0.64689643 8.8362916 1 1 1
vt 0.98899394 -0.09796033
vt 0.26299899 -0.14501836
vt 0.26299899 -0.14501836
vt 0.98899394 -0.09796033
vt 0.26299899 -0.14501836
vt 0.98899394 -0.09796033
vt 0.26299899 -0.14501836
vt 0.16548144 -0.13067802
vt 0.16548144 -0.13067802
vt 0.26299899 -0.14501836
vt 0.16548144 -0.13067802
vt 0.26299899 -0.14501836
vt 0.16548144 -0.13067802
vt -0.046355305 0.073580941
vt -0.046355305 0.073580941
vt 0.16548144 -0.13067802
vt -0.046355305 0.073580941
vt 0.16548144 -0.13067802
vt -0.046355305 0.073580941
vt 0.011006061 0.09796033
vt 0.011006061 0.09796033
vt -0.046355305 0.073580941
vt 0.011006061 0.09796033
vt -0.046355305 0.073580941
vt 0.011006061 0.09796033
vt 0.73700101 0.14501836
vt 0.73700101 0.14501836
vt 0.011006061 0.09796033
vt 0.73700101 0.14501836
vt 0.011006061 0.09796033
vt 0.73700101 0.14501836
vt 0.83451856 0.13067802
vt 0.83451856 0.13067802
vt 0.73700101 0.14501836
vt 0.83451856 0.13067802
vt 0.73700101 0.14501836
vt 0.83451856 0.13067802
vt 1.0463553 -0.073580941
vt 1.0463553 -0.073580941
vt 0.83451856 0.13067802
vt 1.0463553 -0.073580941
vt 0.83451856 0.13067802
vt 1.0463553 -0.073580941
vt 0.98899394 -0.09796033
vt 0.98899394 -0.09796033
vt 1.0463553 -0.073580941
vt 0.98899394 -0.09796033
vt 1.0463553 -0.073580941
vt 0.98899394 -0.09796033
vt 0.16548144 -0.13067802
vt 0.26299899 -0.14501836
vt 0.98899394 -0.09796033
vt 0.26299899 -0.14501836
vt 0.16548144 -0.13067802
vt 0.98899394 -0.09796033
vt -0.046355305 0.073580941
vt 0.16548144 -0.13067802
vt 0.98899394 -0.09796033
vt 0.16548144 -0.13067802
vt -0.046355305 0.073580941
vt 0.98899394 -0.09796033
vt 0.011006061 0.09796033
vt -0.046355305 0.073580941
vt 0.98899394 -0.09796033
vt -0.046355305 0.073580941
vt 0.011006061 0.09796033
vt 0.98899394 -0.09796033
vt 0.73700101 0.14501836
vt 0.011006061 0.09796033
vt 0.98899394 -0.09796033
vt 0.011006061 0.09796033
vt 0.73700101 0.14501836
vt 0.98899394 -0.09796033
vt 0.83451856 0.13067802
vt 0.73700101 0.14501836
vt 0.98899394 -0.09796033
vt 0.73700101 0.14501836
vt 0.83451856 0.13067802
vt 0.98899394 -0.09796033
vt 1.0463553 -0.073580941
vt 0.83451856 0.13067802
vt 0.98899394 -0.09796033
vt 0.83451856 0.13067802
vt 1.0463553 -0.073580941
vn -0.96799326 0.25097618 0
vn -0.96799326 0.25097618 0
vn -0.96799326 0.25097618 0
vn -0.96799326 0.25097618 0
vn -0.96799326 0.25097618 0
vn -0.96799326 0.25097618 0
vn -0.86194156 -0.50700764 0
vn -0.86194156 -0.50700764 0
vn -0.86194156 -0.50700764 0
vn -0.86194156 -0.50700764 0
vn -0.86194156 -0.50700764 0
vn -0.86194156 -0.50700764 0
vn -0.25097618 -0.96799326 0
vn -0.25097618 -0.96799326 0
vn -0.25097618 -0.96799326 0
vn -0.25097618 -0.96799326 0
vn -0.25097618 -0.96799326 0
vn -0.25097618 -0.96799326 0
vn 0.50700764 -0.86194156 0
vn 0.50700764 -0.86194156 0
vn 0.50700764 -0.86194156 0
vn 0.50700764 -0.86194156 0
vn 0.50700764 -0.86194156 0
vn 0.50700764 -0.86194156 0
vn 0.96799326 -0.25097618 0
vn 0.96799326 -0.25097618 0
vn 0.96799326 -0.25097618 0
vn 0.96799326 -0.25097618 0
vn 0.96799326 -0.25097618 0
vn 0.96799326 -0.25097618 0
vn 0.86194156 0.50700764 0
vn 0.86194156 0.50700764 0
vn 0.86194156 0.50700764 0
vn 0.86194156 0.50700764 -0
vn 0.86194156 0.50700764 -0
vn 0.86194156 0.50700764 -0
vn 0.25097618 0.96799326 0
vn 0.25097618 0.96799326 0
vn 0.25097618 0.96799326 0
vn 0.25097618 0.96799326 -0
vn 0.25097618 0.96799326 -0
vn 0.25097618 0.96799326 -0
vn -0.50700764 0.86194156 0
vn -0.50700764 0.86194156 0
vn -0.50700764 0.86194156 0
vn -0.50700764 0.86194156 0
vn -0.50700764 0.86194156 0
vn -0.50700764 0.86194156 0
vn 0 0 -1
vn 0 0 -1
vn 0 0 -1
vn 0 0 1
vn 0 0 1
vn 0 0 1
vn 0 -0 -1
vn 0 -0 -1
vn 0 -0 -1
vn 0 0 1
vn 0 0 1
vn 0 0 1
vn 0 0 -1
vn 0 0 -1
vn 0 0 -1
vn 0 0 1
vn 0 0 1
vn 0 0 1
vn 0 0 -1
vn 0 0 -1
vn 0 0 -1
vn 0 0 1
vn 0 0 1
vn 0 0 1
vn 0 0 -1
vn 0 0 -1
vn 0 0 -1
vn 0 0 1
vn 0 0 1
vn 0 0 1
vn 0 0 -1
vn 0 0 -1
vn 0 0 -1
vn -0 0 1
vn -0 0 1
vn -0 0 1
f 257/257/257 258/258/258 259/259/259
f 260/260/260 261/261/261 262/262/262
f 263/263/263 264/264/264 265/265/265
f 266/266/266 267/267/267 268/268/268
f 269/269/269 270/270/270 271/271/271
f 272/272/272 273/273/273 274/274/274
f 275/275/275 276/276/276 277/277/277
f 278/278/278 279/279/279 280/280/280
f 281/281/281 282/282/282 283/283/283
f 284/284/284 285/285/285 286/286/286
f 287/287/287 288/288/288 289/289/289
f 290/290/290 291/291/291 292/292/292
f 293/293/293 294/294/294 295/295/295
f 296/296/296 297/297/297 298/298/298
f 299/299/299 300/300/300 301/301/301
f 302/302/302 303/303/303 304/304/304
f 305/305/305 306/306/306 307/307/307
f 308/308/308 309/309/309 310/310/310
f 311/311/311 312/312/312 313/313/313
f 314/314/314 315/315/315 316/316/316
f 317/317/317 318/318/318 319/319/319
f 320/320/320 321/321/321 322/322/322
f 323/323/323 324/324/324 325/325/325
f 326/326/326 327/327/327 328/328/328
f 329/329/329 330/330/330 331/331/331
f 332/332/332 333/333/333 334/334/334
f 335/335/335 336/336/336 337/337/337
f 338/338/338 339/339/339 340/340/340
usemtl rope
v -5.669007 0.6465319 8.8620002 0.84 0.76 0.61
v -5.6579957 0.66262539 8.8732585 0.84 0.76 0.61
v -5.6579957 0.66262539 8.8507419 0.84 0.76 0.61
v -5.479007 0.5165319 8.8620002 0.84 0.76 0.61
v -5.4679957 0.53262539 8.8732585 0.84 0.76 0.61
v -5.4679957 0.53262539 8.8507419 0.84 0.76 0.61
v -5.6616661 0.6572609 8.8620002 0.84 0.76 0.61
v -5.4716661 0.5272609 8.8620002 0.84 0.76 0.61
vt 0 0
vt 0 0
vt 0 0
vt 0 0
vt 0 0
vt 0 0
vt 0 0
vt 0 0
vn -0.51566334 -0.69595744 0.49973449
vn 0.46187852 0.73275758 0.49973449
vn -0.026892413 0.018400072 -0.99946898
vn -0.46187852 -0.73275758 -0.49973449
vn 0.026892413 -0.018400072 0.99946898
vn 0.51566334 0.69595744 -0.49973449
vn -0.82530726 0.56468392 1.5433048e-17
vn 0.82530726 -0.56468392 0
f 341/341/341 345/345/345 342/342/342
f 341/341/341 344/344/344 345/345/345
f 342/342/342 346/346/346 343/343/343
f 342/342/342 345/345/345 346/346/346
f 343/343/343 344/344/344 341/341/341
f 343/343/343 346/346/346 344/344/344
f 342/342/342 347/347/347 341/341/341
f 343/343/343 347/347/347 342/342/342
f 341/341/341 347/347/347 343/343/343
f 348/348/348 345/345/345 344/344/344
f 348/348/348 346/346/346 345/345/345
f 348/348/348 344/344/344 346/346/346
usemtl rope
v -5.6543252 0.5165319 8.8620002 0.84 0.76 0.61
v -5.6653366 0.53262539 8.8732585 0.84 0.76 0.61
v -5.6653366 0.53262539 8.8507419 0.84 0.76 0.61
v -5.4643252 0.6465319 8.8620002 0.84 0.76 0.61
v -5.4753366 0.66262539 8.8732585 0.84 0.76 0.61
v -5.4753366 0.66262539 8.8507419 0.84 0.76 0.61
v -5.6616661 0.5272609 8.8620002 0.84 0.76 0.61
v -5.4716661 0.6572609 8.8620002 0.84 0.76 0.61
vt 0 0
vt 0 0
vt 0 0
vt 0 0
vt 0 0
vt 0 0
vt 0 0
vt 0 0
vn 0.46187852 -0.73275758 0.49973449
vn -0.51566334 0.69595744 0.49973449
vn -0.026892413 -0.018400072 -0.99946898
vn 0.51566334 -0.69595744 -0.49973449
vn 0.026892413 0.018400072 0.99946898
vn -0.46187852 0.73275758 -0.49973449
vn -0.82530726 -0.56468392 -1.5433048e-17
vn 0.82530726 0.56468392 0
f 349/349/349 353/353/353 350/350/350
f 349/349/349 352/352/352 353/353/353
f 350/350/350 354/354/354 351/351/351
f 350/350/350 353/353/353 354/354/354
f 351/351/351 352/352/352 349/349/349
f 351/351/351 354/354/354 352/352/352
f 350/350/350 355/355/355 349/349/349
f 351/351/351 355/355/355 350/350/350
f 349/349/349 355/355/355 351/351/351
f 356/356/356 353/353/353 352/352/352
f 356/356/356 354/354/354 353/353/353
f 356/356/356 352/352/352 354/354/354
usemtl timber_dark
v -5.6319051 1.178764 8.7962916 1 1 1
v -5.6392641 1.1041259 8.7962916 1 1 1
v -5.6392641 1.1041259 8.8362916 1 1 1
v -5.6319051 1.178764 8.7962916 1 1 1
v -5.6392641 1.1041259 8.8362916 1 1 1
v -5.6319051 1.178764 8.8362916 1 1 1
v -5.6392641 1.1041259 8.7962916 1 1 1
v -5.6320877 1.0953795 8.7962916 1 1 1
v -5.6320877 1.0953795 8.8362916 1 1 1
v -5.6392641 1.1041259 8.7962916 1 1 1
v -5.6320877 1.0953795 8.8362916 1 1 1
v -5.6392641 1.1041259 8.8362916 1 1 1
v -5.6320877 1.0953795 8.7962916 1 1 1
v -5.4567374 1.0780908 8.7962916 1 1 1
v -5.4567374 1.0780908 8.8362916 1 1 1
v -5.6320877 1.0953795 8.7962916 1 1 1
v -5.4567374 1.0780908 8.8362916 1 1 1
v -5.6320877 1.0953795 8.8362916 1 1 1
v -5.4567374 1.0780908 8.7962916 1 1 1
v -5.4479911 1.0852672 8.7962916 1 1 1
v -5.4479911 1.0852672 8.8362916 1 1 1
v -5.4567374 1.0780908 8.7962916 1 1 1
v -5.4479911 1.0852672 8.8362916 1 1 1
v -5.4567374 1.0780908 8.8362916 1 1 1
v -5.4479911 1.0852672 8.7962916 1 1 1
v -5.4406321 1.1599053 8.7962916 1 1 1
v -5.4406321 1.1599053 8.8362916 1 1 1
v -5.4479911 1.0852672 8.7962916 1 1 1
v -5.4406321 1.1599053 8.8362916 1 1 1
v -5.4479911 1.0852672 8.8362916 1 1 1
v -5.4406321 1.1599053 8.7962916 1 1 1
v -5.4478085 1.1686517 8.7962916 1 1 1
v -5.4478085 1.1686517 8.8362916 1 1 1
v -5.4406321 1.1599053 8.7962916 1 1 1
v -5.4478085 1.1686517 8.8362916 1 1 1
v -5.4406321 1.1599053 8.8362916 1 1 1
v -5.4478085 1.1686517 8.7962916 1 1 1
v -5.6231588 1.1859404 8.7962916 1 1 1
v -5.6231588 1.1859404 8.8362916 1 1 1
v -5.4478085 1.1686517 8.7962916 1 1 1
v -5.6231588 1.1859404 8.8362916 1 1 1
v -5.4478085 1.1686517 8.8362916 1 1 1
v -5.6231588 1.1859404 8.7962916 1 1 1
v -5.6319051 1.178764 8.7962916 1 1 1
v -5.6319051 1.178764 8.8362916 1 1 1
v -5.6231588 1.1859404 8.7962916 1 1 1
v -5.6319051 1.178764 8.8362916 1 1 1
v -5.6231588 1.1859404 8.8362916 1 1 1
v -5.6319051 1.178764 8.7962916 1 1 1
v -5.6320877 1.0953795 8.7962916 1 1 1
v -5.6392641 1.1041259 8.7962916 1 1 1
v -5.6319051 1.178764 8.8362916 1 1 1
v -5.6392641 1.1041259 8.8362916 1 1 1
v -5.6320877 1.0953795 8.8362916 1 1 1
v -5.6319051 1.178764 8.7962916 1 1 1
v -5.4567374 1.0780908 8.7962916 1 1 1
v -5.6320877 1.0953795 8.7962916 1 1 1
v -5.6319051 1.178764 8.8362916 1 1 1
v -5.6320877 1.0953795 8.8362916 1 1 1
v -5.4567374 1.0780908 8.8362916 1 1 1
v -5.6319051 1.178764 8.7962916 1 1 1
v -5.4479911 1.0852672 8.7962916 1 1 1
v -5.4567374 1.0780908 8.7962916 1 1 1
v -5.6319051 1.178764 8.8362916 1 1 1
v -5.4567374 1.0780908 8.8362916 1 1 1
v -5.4479911 1.0852672 8.8362916 1 1 1
v -5.6319051 1.178764 8.7962916 1 1 1
v -5.4406321 1.1599053 8.7962916 1 1 1
v -5.4479911 1.0852672 8.7962916 1 1 1
v -5.6319051 1.178764 8.8362916 1 1 1
v -5.4479911 1.0852672 8.8362916 1 1 1
v -5.4406321 1.1599053 8.8362916 1 1 1
v -5.6319051 1.178764 8.7962916 1 1 1
v -5.4478085 1.1686517 8.7962916 1 1 1
v -5.4406321 1.1599053 8.7962916 1 1 1
v -5.6319051 1.178764 8.8362916 1 1 1
v -5.4406321 1.1599053 8.8362916 1 1 1
v -5.4478085 1.1686517 8.8362916 1 1 1
v -5.6319051 1.178764 8.7962916 1 1 1
v -5.6231588 1.1859404 8.7962916 1 1 1
v -5.4478085 1.1686517 8.7962916 1 1 1
v -5.6319051 1.178764 8.8362916 1 1 1
v -5.4478085 1.1686517 8.8362916 1 1 1
v -5.6231588 1.1859404 8.8362916 1 1 1
vt 0.96748388 -0.22989258
vt 0.22110292 -0.24829005
vt 0.22110292 -0.24829005
vt 0.96748388 -0.22989258
vt 0.22110292 -0.24829005
vt 0.96748388 -0.22989258
vt 0.22110292 -0.24829005
vt 0.13363937 -0.23034896
vt 0.13363937 -0.23034896
vt 0.22110292 -0.24829005
vt 0.13363937 -0.23034896
vt 0.22110292 -0.24829005
vt 0.13363937 -0.23034896
vt -0.03924826 0.2080267
vt -0.03924826 0.2080267
vt 0.13363937 -0.23034896
vt -0.03924826 0.2080267
vt 0.13363937 -0.23034896
vt -0.03924826 0.2080267
vt 0.032516122 0.22989258
vt 0.032516122 0.22989258
vt -0.03924826 0.2080267
vt 0.032516122 0.22989258
vt -0.03924826 0.2080267
vt 0.032516122 0.22989258
vt 0.77889708 0.24829005
vt 0.77889708 0.24829005
vt 0.032516122 0.22989258
vt 0.77889708 0.24829005
vt 0.032516122 0.22989258
vt 0.77889708 0.24829005
vt 0.86636063 0.23034896
vt 0.86636063 0.23034896
vt 0.77889708 0.24829005
vt 0.86636063 0.23034896
vt 0.77889708 0.24829005
vt 0.86636063 0.23034896
vt 1.0392483 -0.2080267
vt 1.0392483 -0.2080267
vt 0.86636063 0.23034896
vt 1.0392483 -0.2080267
vt 0.86636063 0.23034896
vt 1.0392483 -0.2080267
vt 0.96748388 -0.22989258
vt 0.96748388 -0.22989258
vt 1.0392483 -0.2080267
vt 0.96748388 -0.22989258
vt 1.0392483 -0.2080267
vt 0.96748388 -0.22989258
vt 0.13363937 -0.23034896
vt 0.22110292 -0.24829005
vt 0.96748388 -0.22989258
vt 0.22110292 -0.24829005
vt 0.13363937 -0.23034896
vt 0.96748388 -0.22989258
vt -0.03924826 0.2080267
vt 0.13363937 -0.23034896
vt 0.96748388 -0.22989258
vt 0.13363937 -0.23034896
vt -0.03924826 0.2080267
vt 0.96748388 -0.22989258
vt 0.032516122 0.22989258
vt -0.03924826 0.2080267
vt 0.96748388 -0.22989258
vt -0.03924826 0.2080267
vt 0.032516122 0.22989258
vt 0.96748388 -0.22989258
vt 0.77889708 0.24829005
vt 0.032516122 0.22989258
vt 0.96748388 -0.22989258
vt 0.032516122 0.22989258
vt 0.77889708 0.24829005
vt 0.96748388 -0.22989258
vt 0.86636063 0.23034896
vt 0.77889708 0.24829005
vt 0.96748388 -0.22989258
vt 0.77889708 0.24829005
vt 0.86636063 0.23034896
vt 0.96748388 -0.22989258
vt 1.0392483 -0.2080267
vt 0.86636063 0.23034896
vt 0.96748388 -0.22989258
vt 0.86636063 0.23034896
vt 1.0392483 -0.2080267
vn -0.99517461 0.098119829 0
vn -0.99517461 0.098119829 0
vn -0.99517461 0.098119829 0
vn -0.99517461 0.098119829 0
vn -0.99517461 0.098119829 0
vn -0.99517461 0.098119829 0
vn -0.77307591 -0.63431352 0
vn -0.77307591 -0.63431352 0
vn -0.77307591 -0.63431352 0
vn -0.77307591 -0.63431352 0
vn -0.77307591 -0.63431352 0
vn -0.77307591 -0.63431352 0
vn -0.098119829 -0.99517461 0
vn -0.098119829 -0.99517461 0
vn -0.098119829 -0.99517461 0
vn -0.098119829 -0.99517461 0
vn -0.098119829 -0.99517461 0
vn -0.098119829 -0.99517461 0
vn 0.63431352 -0.77307591 0
vn 0.63431352 -0.77307591 0
vn 0.63431352 -0.77307591 0
vn 0.63431352 -0.77307591 0
vn 0.63431352 -0.77307591 0
vn 0.63431352 -0.77307591 0
vn 0.99517461 -0.098119829 0
vn 0.99517461 -0.098119829 0
vn 0.99517461 -0.098119829 0
vn 0.99517461 -0.098119829 0
vn 0.99517461 -0.098119829 0
vn 0.99517461 -0.098119829 0
vn 0.77307591 0.63431352 0
vn 0.77307591 0.63431352 0
vn 0.77307591 0.63431352 0
vn 0.77307591 0.63431352 -0
vn 0.77307591 0.63431352 -0
vn 0.77307591 0.63431352 -0
vn 0.098119829 0.99517461 0
vn 0.098119829 0.99517461 0
vn 0.098119829 0.99517461 0
vn 0.098119829 0.99517461 -0
vn 0.098119829 0.99517461 -0
vn 0.098119829 0.99517461 -0
vn -0.63431352 0.77307591 0
vn -0.63431352 0.77307591 0
vn -0.63431352 0.77307591 0
vn -0.63431352 0.77307591 0
vn -0.63431352 0.77307591 0
vn -0.63431352 0.77307591 0
vn 0 0 -1
vn 0 0 -1
vn 0 0 -1
vn 0 0 1
vn 0 0 1
vn 0 0 1
vn 0 -0 -1
vn 0 -0 -1
vn 0 -0 -1
vn 0 0 1
vn 0 0 1
vn 0 0 1
vn 0 0 -1
vn 0 0 -1
vn 0 0 -1
vn 0 0 1
vn 0 0 1
vn 0 0 1
vn 0 0 -1
vn 0 0 -1
vn 0 0 -1
vn 0 0 1
vn 0 0 1
vn 0 0 1
vn 0 0 -1
vn 0 0 -1
vn 0 0 -1
vn 0 0 1
vn 0 0 1
vn 0 0 1
vn 0 0 -1
vn 0 0 -1
vn 0 0 -1
vn -0 0 1
vn -0 0 1
vn -0 0 1
f 357/357/357 358/358/358 359/359/359
f 360/360/360 361/361/361 362/362/362
f 363/363/363 364/364/364 365/365/365
f 366/366/366 367/367/367 368/368/368
f 369/369/369 370/370/370 371/371/371
f 372/372/372 373/373/373 374/374/374
f 375/375/375 376/376/376 377/377/377
f 378/378/378 379/379/379 380/380/380
f 381/381/381 382/382/382 383/383/383
f 384/384/384 385/385/385 386/386/386
f 387/387/387 388/388/388 389/389/389
f 390/390/390 391/391/391 392/392/392
f 393/393/393 394/394/394 395/395/395
f 396/396/396 397/397/397 398/398/398
f 399/399/399 400/400/400 401/401/401
f 402/402/402 403/403/403 404/404/404
f 405/405/405 406/406/406 407/407/407
f 408/408/408 409/409/409 410/410/410
f 411/411/411 412/412/412 413/413/413
f 414/414/414 415/415/415 416/416/416
f 417/417/417 418/418/418 419/419/419
f 420/420/420 421/421/421 422/422/422
f 423/423/423 424/424/424 425/425/425
f 426/426/426 427/427/427 428/428/428
f 429/429/429 430/430/430 431/431/431
f 432/432/432 433/433/433 434/434/434
f 435/435/435 436/436/436 437/437/437
f 438/438/438 439/439/439 440/440/440
usemtl rope
v -5.669007 1.1862866 8.8620002 0.84 0.76 0.61
v -5.6579957 1.2023801 8.8732585 0.84 0.76 0.61
v -5.6579957 1.2023801 8.8507419 0.84 0.76 0.61
v -5.479007 1.0562866 8.8620002 0.84 0.76 0.61
v -5.4679957 1.0723801 8.8732585 0.84 0.76 0.61
v -5.4679957 1.0723801 8.8507419 0.84 0.76 0.61
v -5.6616661 1.1970156 8.8620002 0.84 0.76 0.61
v -5.4716661 1.0670156 8.8620002 0.84 0.76 0.61
vt 0 0
vt 0 0
vt 0 0
vt 0 0
vt 0 0
vt 0 0
vt 0 0
vt 0 0
vn -0.51566334 -0.69595744 0.49973449
vn 0.46187852 0.73275758 0.49973449
vn -0.026892413 0.018400072 -0.99946898
vn -0.46187852 -0.73275758 -0.49973449
vn 0.026892413 -0.018400072 0.99946898
vn 0.51566334 0.69595744 -0.49973449
vn -0.82530726 0.56468392 1.5433048e-17
vn 0.82530726 -0.56468392 0
f 441/441/441 445/445/445 442/442/442
f 441/441/441 444/444/444 445/445/445
f 442/442/442 446/446/446 443/443/443
f 442/442/442 445/445/445 446/446/446
f 443/443/443 444/444/444 441/441/441
f 443/443/443 446/446/446 444/444/444
f 442/442/442 447/447/447 441/441/441
f 443/443/443 447/447/447 442/442/442
f 441/441/441 447/447/447 443/443/443
f 448/448/448 445/445/445 444/444/444
f 448/448/448 446/446/446 445/445/445
f 448/448/448 444/444/444 446/446/446
usemtl rope
v -5.6543252 1.0562866 8.8620002 0.84 0.76 0.61
v -5.6653366 1.0723801 8.8732585 0.84 0.76 0.61
v -5.6653366 1.0723801 8.8507419 0.84 0.76 0.61
v -5.4643252 1.1862866 8.8620002 0.84 0.76 0.61
v -5.4753366 1.2023801 8.8732585 0.84 0.76 0.61
v -5.4753366 1.2023801 8.8507419 0.84 0.76 0.61
v -5.6616661 1.0670156 8.8620002 0.84 0.76 0.61
v -5.4716661 1.1970156 8.8620002 0.84 0.76 0.61
vt 0 0
vt 0 0
vt 0 0
vt 0 0
vt 0 0
vt 0 0
vt 0 0
vt 0 0
vn 0.46187852 -0.73275758 0.49973449
vn -0.51566334 0.69595744 0.49973449
vn -0.026892413 -0.018400072 -0.99946898
vn 0.51566334 -0.69595744 -0.49973449
vn 0.026892413 0.018400072 0.99946898
vn -0.46187852 0.73275758 -0.49973449
vn -0.82530726 -0.56468392 -1.5433048e-17
vn 0.82530726 0.56468392 0
f 449/449/449 453/453/453 450/450/450
f 449/449/449 452/452/452 453/453/453
f 450/450/450 454/454/454 451/451/451
f 450/450/450 453/453/453 454/454/454
f 451/451/451 452/452/452 449/449/449
f 451/451/451 454/454/454 452/452/452
f 450/450/450 455/455/455 449/449/449
f 451/451/451 455/455/455 450/450/450
f 449/449/449 455/455/455 451/451/451
f 456/456/456 453/453/453 452/452/452
f 456/456/456 454/454/454 453/453/453
f 456/456/456 452/452/452 454/454/454
usemtl timber
v 9.0950254 0.07266129 8.8000002 1 1 1
v 9.0390448 0.07266129 8.8672018 1 1 1
v 8.9297569 0.07266129 8.8646271 1 1 1
v 8.8710254 0.07266129 8.8000002 1 1 1
v 8.9270448 0.07266129 8.7321018 1 1 1
v 9.0417569 0.07266129 8.7295271 1 1 1
v 9.097779 1.052019 8.8000002 1 1 1
v 9.037668 1.052019 8.865541 1 1 1
v 8.9283801 1.052019 8.8662879 1 1 1
v 8.873779 1.052019 8.8000002 1 1 1
v 8.925668 1.052019 8.7304411 1 1 1
v 9.0403801 1.052019 8.7311879 1 1 1
v 8.9833336 0.07266129 8.8000002 1 1 1
v 8.9833336 1.447019 8.8000002 1 1 1
vt 1 0.692
vt 1.3333333 0.692
vt 1.6666667 0.692
vt 2 0.692
vt 0.33333333 0.692
vt 0.66666667 0.692
vt 1 2.5200361
vt 1.3333333 2.5200361
vt 1.6666667 2.5200361
vt 2 2.5200361
vt 0.33333333 2.5200361
vt 0.66666667 2.5200361
vt 1 0.692
vt 1 3.2573298
vn 0.95273179 -0.074516793 0.29453247
vn 0.23131194 -0.052472658 0.97146354
vn -0.51340903 -0.057524857 0.85621379
vn -0.96912342 -0.071985144 -0.23583457
vn -0.23694169 -0.054643257 -0.96998595
vn 0.51767933 -0.060402249 -0.85343991
vn 0.98055518 0.058723463 -0.18725142
vn 0.47841226 0.045402362 0.87696085
vn -0.26822082 0.041366677 0.9624689
vn -0.96961586 0.058450366 0.23754714
vn -0.49300183 0.047051465 -0.86875506
vn 0.25751655 0.044264267 -0.9652595
vn 0 -1 0
vn 7.6422322e-17 1 -4.5853393e-16
f 457/457/457 464/464/464 458/458/458
f 457/457/457 463/463/463 464/464/464
f 458/458/458 465/465/465 459/459/459
f 458/458/458 464/464/464 465/465/465
f 459/459/459 466/466/466 460/460/460
f 459/459/459 465/465/465 466/466/466
f 460/460/460 467/467/467 461/461/461
f 460/460/460 466/466/466 467/467/467
f 461/461/461 468/468/468 462/462/462
f 461/461/461 467/467/467 468/468/468
f 462/462/462 463/463/463 457/457/457
f 462/462/462 468/468/468 463/463/463
f 469/469/469 457/457/457 458/458/458
f 463/463/463 470/470/470 464/464/464
f 469/469/469 458/458/458 459/459/459
f 464/464/464 470/470/470 465/465/465
f 469/469/469 459/459/459 460/460/460
f 465/465/465 470/470/470 466/466/466
f 469/469/469 460/460/460 461/461/461
f 466/466/466 470/470/470 467/467/467
f 469/469/469 461/461/461 462/462/462
f 467/467/467 470/470/470 468/468/468
f 469/469/469 462/462/462 457/457/457
f 468/468/468 470/470/470 463/463/463
usemtl snow
v 9.1200632 1.1430884 8.8000002 1 1 1
v 9.0516984 1.1159127 8.8824652 1 1 1
v 8.9149688 1.0703228 8.8824652 1 1 1
v 8.846604 1.0745029 8.8000002 1 1 1
v 8.9149688 1.0626457 8.7175352 1 1 1
v 9.0516984 1.0856412 8.7175352 1 1 1
v 8.9979832 1.4898933 8.8000002 1 1 1
v 8.9906584 1.4803818 8.8088357 1 1 1
v 8.9760088 1.4644253 8.8088357 1 1 1
v 8.968684 1.4658883 8.8000002 1 1 1
v 8.9760088 1.4617383 8.7911647 1 1 1
v 8.9906584 1.4697868 8.7911647 1 1 1
v 8.9833336 1.082019 8.8000002 1 1 1
v 8.9833336 1.495019 8.8000002 1 1 1
vt 0 0
vt 0 0
vt 0 0
vt 0 0
vt 0 0
vt 0 0
vt 0 0
vt 0 0
vt 0 0
vt 0 0
vt 0 0
vt 0 0
vt 0 0
vt 0 0
vn 0.99841956 -0.0191344 0.052841895
vn 0.35185812 -0.014561568 0.93594008
vn -0.38987198 -0.015059194 0.92074592
vn -0.99873979 -0.020077956 -0.045996715
vn -0.35379621 -0.014877137 -0.93520421
vn 0.39184124 -0.014659058 -0.91991606
vn 0.70760056 0.26236747 -0.65609813
vn 0.6063738 0.25360135 0.75365587
vn -0.1322882 0.19886102 0.97105825
vn -0.80120859 0.25242696 0.5425361
vn -0.67815572 0.23246479 -0.69718358
vn -0.0060939356 0.19119908 -0.98153236
vn 0.24177168 -0.96397493 0.11089994
vn -0.60856431 0.74278304 -0.27914662
f 471/471/471 478/478/478 472/472/472
f 471/471/471 477/477/477 478/478/478
f 472/472/472 479/479/479 473/473/473
f 472/472/472 478/478/478 479/479/479
f 473/473/473 480/480/480 474/474/474
f 473/473/473 479/479/479 480/480/480
f 474/474/474 481/481/481 475/475/475
f 474/474/474 480/480/480 481/481/481
f 475/475/475 482/482/482 476/476/476
f 475/475/475 481/481/481 482/482/482
f 476/476/476 477/477/477 471/471/471
f 476/476/476 482/482/482 477/477/477
f 483/483/483 471/471/471 472/472/472
f 477/477/477 484/484/484 478/478/478
f 483/483/483 472/472/472 473/473/473
f 478/478/478 484/484/484 479/479/479
f 483/483/483 473/473/473 474/474/474
f 479/479/479 484/484/484 480/480/480
f 483/483/483 474/474/474 475/475/475
f 480/480/480 484/484/484 481/481/481
f 483/483/483 475/475/475 476/476/476
f 481/481/481 484/484/484 482/482/482
f 483/483/483 476/476/476 471/471/471
f 482/482/482 484/484/484 477/477/477
usemtl timber_dark
v 8.9466807 0.44634568 8.7962916 1 1 1
v 8.9365186 0.37203731 8.7962916 1 1 1
v 8.9365186 0.37203731 8.8362916 1 1 1
v 8.9466807 0.44634568 8.7962916 1 1 1
v 8.9365186 0.37203731 8.8362916 1 1 1
v 8.9466807 0.44634568 8.8362916 1 1 1
v 8.9365186 0.37203731 8.7962916 1 1 1
v 8.9433609 0.36302714 8.7962916 1 1 1
v 8.9433609 0.36302714 8.8362916 1 1 1
v 8.9365186 0.37203731 8.7962916 1 1 1
v 8.9433609 0.36302714 8.8362916 1 1 1
v 8.9365186 0.37203731 8.8362916 1 1 1
v 8.9433609 0.36302714 8.7962916 1 1 1
v 9.0245544 0.35192353 8.7962916 1 1 1
v 9.0245544 0.35192353 8.8362916 1 1 1
v 8.9433609 0.36302714 8.7962916 1 1 1
v 9.0245544 0.35192353 8.8362916 1 1 1
v 8.9433609 0.36302714 8.8362916 1 1 1
v 9.0245544 0.35192353 8.7962916 1 1 1
v 9.0335646 0.35876581 8.7962916 1 1 1
v 9.0335646 0.35876581 8.8362916 1 1 1
v 9.0245544 0.35192353 8.7962916 1 1 1
v 9.0335646 0.35876581 8.8362916 1 1 1
v 9.0245544 0.35192353 8.8362916 1 1 1
v 9.0335646 0.35876581 8.7962916 1 1 1
v 9.0437266 0.43307418 8.7962916 1 1 1
v 9.0437266 0.43307418 8.8362916 1 1 1
v 9.0335646 0.35876581 8.7962916 1 1 1
v 9.0437266 0.43307418 8.8362916 1 1 1
v 9.0335646 0.35876581 8.8362916 1 1 1
v 9.0437266 0.43307418 8.7962916 1 1 1
v 9.0368843 0.44208435 8.7962916 1 1 1
v 9.0368843 0.44208435 8.8362916 1 1 1
v 9.0437266 0.43307418 8.7962916 1 1 1
v 9.0368843 0.44208435 8.8362916 1 1 1
v 9.0437266 0.43307418 8.8362916 1 1 1
v 9.0368843 0.44208435 8.7962916 1 1 1
v 8.9556908 0.45318795 8.7962916 1 1 1
v 8.9556908 0.45318795 8.8362916 1 1 1
v 9.0368843 0.44208435 8.7962916 1 1 1
v 8.9556908 0.45318795 8.8362916 1 1 1
v 9.0368843 0.44208435 8.8362916 1 1 1
v 8.9556908 0.45318795 8.7962916 1 1 1
v 8.9466807 0.44634568 8.7962916 1 1 1
v 8.9466807 0.44634568 8.8362916 1 1 1
v 8.9556908 0.45318795 8.7962916 1 1 1
v 8.9466807 0.44634568 8.8362916 1 1 1
v 8.9556908 0.45318795 8.8362916 1 1 1
v 8.9466807 0.44634568 8.7962916 1 1 1
v 8.9433609 0.36302714 8.7962916 1 1 1
v 8.9365186 0.37203731 8.7962916 1 1 1
v 8.9466807 0.44634568 8.8362916 1 1 1
v 8.9365186 0.37203731 8.8362916 1 1 1
v 8.9433609 0.36302714 8.8362916 1 1 1
v 8.9466807 0.44634568 8.7962916 1 1 1
v 9.0245544 0.35192353 8.7962916 1 1 1
v 8.9433609 0.36302714 8.7962916 1 1 1
v 8.9466807 0.44634568 8.8362916 1 1 1
v 8.9433609 0.36302714 8.8362916 1 1 1
v 9.0245544 0.35192353 8.8362916 1 1 1
v 8.9466807 0.44634568 8.7962916 1 1 1
v 9.0335646 0.35876581 8.7962916 1 1 1
v 9.0245544 0.35192353 8.7962916 1 1 1
v 8.9466807 0.44634568 8.8362916 1 1 1
v 9.0245544 0.35192353 8.8362916 1 1 1
v 9.0335646 0.35876581 8.8362916 1 1 1
v 8.9466807 0.44634568 8.7962916 1 1 1
v 9.0437266 0.43307418 8.7962916 1 1 1
v 9.0335646 0.35876581 8.7962916 1 1 1
v 8.9466807 0.44634568 8.8362916 1 1 1
v 9.0335646 0.35876581 8.8362916 1 1 1
v 9.0437266 0.43307418 8.8362916 1 1 1
v 8.9466807 0.44634568 8.7962916 1 1 1
v 9.0368843 0.44208435 8.7962916 1 1 1
v 9.0437266 0.43307418 8.7962916 1 1 1
v 8.9466807 0.44634568 8.8362916 1 1 1
v 9.0437266 0.43307418 8.8362916 1 1 1
v 9.0368843 0.44208435 8.8362916 1 1 1
v 8.9466807 0.44634568 8.7962916 1 1 1
v 8.9556908 0.45318795 8.7962916 1 1 1
v 9.0368843 0.44208435 8.7962916 1 1 1
v 8.9466807 0.44634568 8.8362916 1 1 1
v 9.0368843 0.44208435 8.8362916 1 1 1
v 8.9556908 0.45318795 8.8362916 1 1 1
vt 0.93789934 -0.10860489
vt 0.19481569 -0.13400997
vt 0.19481569 -0.13400997
vt 0.93789934 -0.10860489
vt 0.19481569 -0.13400997
vt 0.93789934 -0.10860489
vt 0.19481569 -0.13400997
vt 0.10471393 -0.11690428
vt 0.10471393 -0.11690428
vt 0.19481569 -0.13400997
vt 0.10471393 -0.11690428
vt 0.19481569 -0.13400997
vt 0.10471393 -0.11690428
vt -0.0063221014 0.086079455
vt -0.0063221014 0.086079455
vt 0.10471393 -0.11690428
vt -0.0063221014 0.086079455
vt 0.10471393 -0.11690428
vt -0.0063221014 0.086079455
vt 0.062100657 0.10860489
vt 0.062100657 0.10860489
vt -0.0063221014 0.086079455
vt 0.062100657 0.10860489
vt -0.0063221014 0.086079455
vt 0.062100657 0.10860489
vt 0.80518431 0.13400997
vt 0.80518431 0.13400997
vt 0.062100657 0.10860489
vt 0.80518431 0.13400997
vt 0.062100657 0.10860489
vt 0.80518431 0.13400997
vt 0.89528607 0.11690428
vt 0.89528607 0.11690428
vt 0.80518431 0.13400997
vt 0.89528607 0.11690428
vt 0.80518431 0.13400997
vt 0.89528607 0.11690428
vt 1.0063221 -0.086079455
vt 1.0063221 -0.086079455
vt 0.89528607 0.11690428
vt 1.0063221 -0.086079455
vt 0.89528607 0.11690428
vt 1.0063221 -0.086079455
vt 0.93789934 -0.10860489
vt 0.93789934 -0.10860489
vt 1.0063221 -0.086079455
vt 0.93789934 -0.10860489
vt 1.0063221 -0.086079455
vt 0.93789934 -0.10860489
vt 0.10471393 -0.11690428
vt 0.19481569 -0.13400997
vt 0.93789934 -0.10860489
vt 0.19481569 -0.13400997
vt 0.10471393 -0.11690428
vt 0.93789934 -0.10860489
vt -0.0063221014 0.086079455
vt 0.10471393 -0.11690428
vt 0.93789934 -0.10860489
vt 0.10471393 -0.11690428
vt -0.0063221014 0.086079455
vt 0.93789934 -0.10860489
vt 0.062100657 0.10860489
vt -0.0063221014 0.086079455
vt 0.93789934 -0.10860489
vt -0.0063221014 0.086079455
vt 0.062100657 0.10860489
vt 0.93789934 -0.10860489
vt 0.80518431 0.13400997
vt 0.062100657 0.10860489
vt 0.93789934 -0.10860489
vt 0.062100657 0.10860489
vt 0.80518431 0.13400997
vt 0.93789934 -0.10860489
vt 0.89528607 0.11690428
vt 0.80518431 0.13400997
vt 0.93789934 -0.10860489
vt 0.80518431 0.13400997
vt 0.89528607 0.11690428
vt 0.93789934 -0.10860489
vt 1.0063221 -0.086079455
vt 0.89528607 0.11690428
vt 0.93789934 -0.10860489
vt 0.89528607 0.11690428
vt 1.0063221 -0.086079455
vn -0.9907782 0.13549372 0
vn -0.9907782 0.13549372 0
vn -0.9907782 0.13549372 0
vn -0.9907782 0.13549372 0
vn -0.9907782 0.13549372 0
vn -0.9907782 0.13549372 0
vn -0.79639452 -0.60477746 0
vn -0.79639452 -0.60477746 0
vn -0.79639452 -0.60477746 0
vn -0.79639452 -0.60477746 0
vn -0.79639452 -0.60477746 0
vn -0.79639452 -0.60477746 0
vn -0.13549372 -0.9907782 0
vn -0.13549372 -0.9907782 0
vn -0.13549372 -0.9907782 0
vn -0.13549372 -0.9907782 0
vn -0.13549372 -0.9907782 0
vn -0.13549372 -0.9907782 0
vn 0.60477746 -0.79639452 0
vn 0.60477746 -0.79639452 0
vn 0.60477746 -0.79639452 0
vn 0.60477746 -0.79639452 0
vn 0.60477746 -0.79639452 0
vn 0.60477746 -0.79639452 0
vn 0.9907782 -0.13549372 0
vn 0.9907782 -0.13549372 0
vn 0.9907782 -0.13549372 0
vn 0.9907782 -0.13549372 0
vn 0.9907782 -0.13549372 0
vn 0.9907782 -0.13549372 0
vn 0.79639452 0.60477746 0
vn 0.79639452 0.60477746 0
vn 0.79639452 0.60477746 0
vn 0.79639452 0.60477746 -0
vn 0.79639452 0.60477746 -0
vn 0.79639452 0.60477746 -0
vn 0.13549372 0.9907782 0
vn 0.13549372 0.9907782 0
vn 0.13549372 0.9907782 0
vn 0.13549372 0.9907782 -0
vn 0.13549372 0.9907782 -0
vn 0.13549372 0.9907782 -0
vn -0.60477746 0.79639452 0
vn -0.60477746 0.79639452 0
vn -0.60477746 0.79639452 0
vn -0.60477746 0.79639452 0
vn -0.60477746 0.79639452 0
vn -0.60477746 0.79639452 0
vn 0 0 -1
vn 0 0 -1
vn 0 0 -1
vn 0 0 1
vn 0 0 1
vn 0 0 1
vn 0 -0 -1
vn 0 -0 -1
vn 0 -0 -1
vn 0 0 1
vn 0 0 1
vn 0 0 1
vn 0 0 -1
vn 0 0 -1
vn 0 0 -1
vn 0 0 1
vn 0 0 1
vn 0 0 1
vn 0 0 -1
vn 0 0 -1
vn 0 0 -1
vn 0 0 1
vn 0 0 1
vn 0 0 1
vn 0 0 -1
vn 0 0 -1
vn 0 0 -1
vn 0 0 1
vn 0 0 1
vn 0 0 1
vn 0 0 -1
vn 0 0 -1
vn 0 0 -1
vn -0 0 1
vn -0 0 1
vn -0 0 1
f 485/485/485 486/486/486 487/487/487
f 488/488/488 489/489/489 490/490/490
f 491/491/491 492/492/492 493/493/493
f 494/494/494 495/495/495 496/496/496
f 497/497/497 498/498/498 499/499/499
f 500/500/500 501/501/501 502/502/502
f 503/503/503 504/504/504 505/505/505
f 506/506/506 507/507/507 508/508/508
f 509/509/509 510/510/510 511/511/511
f 512/512/512 513/513/513 514/514/514
f 515/515/515 516/516/516 517/517/517
f 518/518/518 519/519/519 520/520/520
f 521/521/521 522/522/522 523/523/523
f 524/524/524 525/525/525 526/526/526
f 527/527/527 528/528/528 529/529/529
f 530/530/530 531/531/531 532/532/532
f 533/533/533 534/534/534 535/535/535
f 536/536/536 537/537/537 538/538/538
f 539/539/539 540/540/540 541/541/541
f 542/542/542 543/543/543 544/544/544
f 545/545/545 546/546/546 547/547/547
f 548/548/548 549/549/549 550/550/550
f 551/551/551 552/552/552 553/553/553
f 554/554/554 555/555/555 556/556/556
f 557/557/557 558/558/558 559/559/559
f 560/560/560 561/561/561 562/562/562
f 563/563/563 564/564/564 565/565/565
f 566/566/566 567/567/567 568/568/568
usemtl rope
v 8.8809927 0.45682675 8.8620002 0.84 0.76 0.61
v 8.892004 0.47292024 8.8732585 0.84 0.76 0.61
v 8.892004 0.47292024 8.8507419 0.84 0.76 0.61
v 9.0709927 0.32682675 8.8620002 0.84 0.76 0.61
v 9.082004 0.34292024 8.8732585 0.84 0.76 0.61
v 9.082004 0.34292024 8.8507419 0.84 0.76 0.61
v 8.8883336 0.46755574 8.8620002 0.84 0.76 0.61
v 9.0783336 0.33755574 8.8620002 0.84 0.76 0.61
vt 0 0
vt 0 0
vt 0 0
vt 0 0
vt 0 0
vt 0 0
vt 0 0
vt 0 0
vn -0.51566334 -0.69595744 0.49973449
vn 0.46187852 0.73275758 0.49973449
vn -0.026892413 0.018400072 -0.99946898
vn -0.46187852 -0.73275758 -0.49973449
vn 0.026892413 -0.018400072 0.99946898
vn 0.51566334 0.69595744 -0.49973449
vn -0.82530726 0.56468392 0
vn 0.82530726 -0.56468392 0
f 569/569/569 573/573/573 570/570/570
f 569/569/569 572/572/572 573/573/573
f 570/570/570 574/574/574 571/571/571
f 570/570/570 573/573/573 574/574/574
f 571/571/571 572/572/572 569/569/569
f 571/571/571 574/574/574 572/572/572
f 570/570/570 575/575/575 569/569/569
f 571/571/571 575/575/575 570/570/570
f 569/569/569 575/575/575 571/571/571
f 576/576/576 573/573/573 572/572/572
f 576/576/576 574/574/574 573/573/573
f 576/576/576 572/572/572 574/574/574
usemtl rope
v 8.8956745 0.32682675 8.8620002 0.84 0.76 0.61
v 8.8846631 0.34292024 8.8732585 0.84 0.76 0.61
v 8.8846631 0.34292024 8.8507419 0.84 0.76 0.61
v 9.0856745 0.45682675 8.8620002 0.84 0.76 0.61
v 9.0746631 0.47292024 8.8732585 0.84 0.76 0.61
v 9.0746631 0.47292024 8.8507419 0.84 0.76 0.61
v 8.8883336 0.33755574 8.8620002 0.84 0.76 0.61
v 9.0783336 0.46755574 8.8620002 0.84 0.76 0.61
vt 0 0
vt 0 0
vt 0 0
vt 0 0
vt 0 0
vt 0 0
vt 0 0
vt 0 0
vn 0.46187852 -0.73275758 0.49973449
vn -0.51566334 0.69595744 0.49973449
vn -0.026892413 -0.018400072 -0.99946898
vn 0.51566334 -0.69595744 -0.49973449
vn 0.026892413 0.018400072 0.99946898
vn -0.46187852 0.73275758 -0.49973449
vn -0.82530726 -0.56468392 0
vn 0.82530726 0.56468392 0
f 577/577/577 581/581/581 578/578/578
f 577/577/577 580/580/580 581/581/581
f 578/578/578 582/582/582 579/579/579
f 578/578/578 581/581/581 582/582/582
f 579/579/579 580/580/580 577/577/577
f 579/579/579 582/582/582 580/580/580
f 578/578/578 583/583/583 577/577/577
f 579/579/579 583/583/583 578/578/578
f 577/577/577 583/583/583 579/579/579
f 584/584/584 581/581/581 580/580/580
f 584/584/584 582/582/582 581/581/581
f 584/584/584 580/580/580 582/582/582
usemtl timber_dark
v 8.909259 0.98498756 8.7962916 1 1 1
v 8.9052231 0.91009622 8.7962916 1 1 1
v 8.9052231 0.91009622 8.8362916 1 1 1
v 8.909259 0.98498756 8.7962916 1 1 1
v 8.9052231 0.91009622 8.8362916 1 1 1
v 8.909259 0.98498756 8.8362916 1 1 1
v 8.9052231 0.91009622 8.7962916 1 1 1
v 8.912781 0.90167732 8.7962916 1 1 1
v 8.912781 0.90167732 8.8362916 1 1 1
v 8.9052231 0.91009622 8.7962916 1 1 1
v 8.912781 0.90167732 8.8362916 1 1 1
v 8.9052231 0.91009622 8.8362916 1 1 1
v 8.912781 0.90167732 8.7962916 1 1 1
v 9.084602 0.89241791 8.7962916 1 1 1
v 9.084602 0.89241791 8.8362916 1 1 1
v 8.912781 0.90167732 8.7962916 1 1 1
v 9.084602 0.89241791 8.8362916 1 1 1
v 8.912781 0.90167732 8.8362916 1 1 1
v 9.084602 0.89241791 8.7962916 1 1 1
v 9.0930209 0.89997583 8.7962916 1 1 1
v 9.0930209 0.89997583 8.8362916 1 1 1
v 9.084602 0.89241791 8.7962916 1 1 1
v 9.0930209 0.89997583 8.8362916 1 1 1
v 9.084602 0.89241791 8.8362916 1 1 1
v 9.0930209 0.89997583 8.7962916 1 1 1
v 9.0970568 0.97486716 8.7962916 1 1 1
v 9.0970568 0.97486716 8.8362916 1 1 1
v 9.0930209 0.89997583 8.7962916 1 1 1
v 9.0970568 0.97486716 8.8362916 1 1 1
v 9.0930209 0.89997583 8.8362916 1 1 1
v 9.0970568 0.97486716 8.7962916 1 1 1
v 9.0894988 0.98328606 8.7962916 1 1 1
v 9.0894988 0.98328606 8.8362916 1 1 1
v 9.0970568 0.97486716 8.7962916 1 1 1
v 9.0894988 0.98328606 8.8362916 1 1 1
v 9.0970568 0.97486716 8.8362916 1 1 1
v 9.0894988 0.98328606 8.7962916 1 1 1
v 8.9176779 0.99254547 8.7962916 1 1 1
v 8.9176779 0.99254547 8.8362916 1 1 1
v 9.0894988 0.98328606 8.7962916 1 1 1
v 8.9176779 0.99254547 8.8362916 1 1 1
v 9.0894988 0.98328606 8.8362916 1 1 1
v 8.9176779 0.99254547 8.7962916 1 1 1
v 8.909259 0.98498756 8.7962916 1 1 1
v 8.909259 0.98498756 8.8362916 1 1 1
v 8.9176779 0.99254547 8.7962916 1 1 1
v 8.909259 0.98498756 8.8362916 1 1 1
v 8.9176779 0.99254547 8.8362916 1 1 1
v 8.909259 0.98498756 8.7962916 1 1 1
v 8.912781 0.90167732 8.7962916 1 1 1
v 8.9052231 0.91009622 8.7962916 1 1 1
v 8.909259 0.98498756 8.8362916 1 1 1
v 8.9052231 0.91009622 8.8362916 1 1 1
v 8.912781 0.90167732 8.8362916 1 1 1
v 8.909259 0.98498756 8.7962916 1 1 1
v 9.084602 0.89241791 8.7962916 1 1 1
v 8.912781 0.90167732 8.7962916 1 1 1
v 8.909259 0.98498756 8.8362916 1 1 1
v 8.912781 0.90167732 8.8362916 1 1 1
v 9.084602 0.89241791 8.8362916 1 1 1
v 8.909259 0.98498756 8.7962916 1 1 1
v 9.0930209 0.89997583 8.7962916 1 1 1
v 9.084602 0.89241791 8.7962916 1 1 1
v 8.909259 0.98498756 8.8362916 1 1 1
v 9.084602 0.89241791 8.8362916 1 1 1
v 9.0930209 0.89997583 8.8362916 1 1 1
v 8.909259 0.98498756 8.7962916 1 1 1
v 9.0970568 0.97486716 8.7962916 1 1 1
v 9.0930209 0.89997583 8.7962916 1 1 1
v 8.909259 0.98498756 8.8362916 1 1 1
v 9.0930209 0.89997583 8.8362916 1 1 1
v 9.0970568 0.97486716 8.8362916 1 1 1
v 8.909259 0.98498756 8.7962916 1 1 1
v 9.0894988 0.98328606 8.7962916 1 1 1
v 9.0970568 0.97486716 8.7962916 1 1 1
v 8.909259 0.98498756 8.8362916 1 1 1
v 9.0970568 0.97486716 8.8362916 1 1 1
v 9.0894988 0.98328606 8.8362916 1 1 1
v 8.909259 0.98498756 8.7962916 1 1 1
v 8.9176779 0.99254547 8.7962916 1 1 1
v 9.0894988 0.98328606 8.7962916 1 1 1
v 8.909259 0.98498756 8.8362916 1 1 1
v 9.0894988 0.98328606 8.8362916 1 1 1
v 8.9176779 0.99254547 8.8362916 1 1 1
vt 0.92505863 -0.22970232
vt 0.17614531 -0.23979203
vt 0.17614531 -0.23979203
vt 0.92505863 -0.22970232
vt 0.17614531 -0.23979203
vt 0.92505863 -0.22970232
vt 0.17614531 -0.23979203
vt 0.091956279 -0.22089724
vt 0.091956279 -0.22089724
vt 0.17614531 -0.23979203
vt 0.091956279 -0.22089724
vt 0.17614531 -0.23979203
vt 0.091956279 -0.22089724
vt -0.00063777707 0.20865506
vt -0.00063777707 0.20865506
vt 0.091956279 -0.22089724
vt -0.00063777707 0.20865506
vt 0.091956279 -0.22089724
vt -0.00063777707 0.20865506
vt 0.074941368 0.22970232
vt 0.074941368 0.22970232
vt -0.00063777707 0.20865506
vt 0.074941368 0.22970232
vt -0.00063777707 0.20865506
vt 0.074941368 0.22970232
vt 0.82385469 0.23979203
vt 0.82385469 0.23979203
vt 0.074941368 0.22970232
vt 0.82385469 0.23979203
vt 0.074941368 0.22970232
vt 0.82385469 0.23979203
vt 0.90804372 0.22089724
vt 0.90804372 0.22089724
vt 0.82385469 0.23979203
vt 0.90804372 0.22089724
vt 0.82385469 0.23979203
vt 0.90804372 0.22089724
vt 1.0006378 -0.20865506
vt 1.0006378 -0.20865506
vt 0.90804372 0.22089724
vt 1.0006378 -0.20865506
vt 0.90804372 0.22089724
vt 1.0006378 -0.20865506
vt 0.92505863 -0.22970232
vt 0.92505863 -0.22970232
vt 1.0006378 -0.20865506
vt 0.92505863 -0.22970232
vt 1.0006378 -0.20865506
vt 0.92505863 -0.22970232
vt 0.091956279 -0.22089724
vt 0.17614531 -0.23979203
vt 0.92505863 -0.22970232
vt 0.17614531 -0.23979203
vt 0.091956279 -0.22089724
vt 0.92505863 -0.22970232
vt -0.00063777707 0.20865506
vt 0.091956279 -0.22089724
vt 0.92505863 -0.22970232
vt 0.091956279 -0.22089724
vt -0.00063777707 0.20865506
vt 0.92505863 -0.22970232
vt 0.074941368 0.22970232
vt -0.00063777707 0.20865506
vt 0.92505863 -0.22970232
vt -0.00063777707 0.20865506
vt 0.074941368 0.22970232
vt 0.92505863 -0.22970232
vt 0.82385469 0.23979203
vt 0.074941368 0.22970232
vt 0.92505863 -0.22970232
vt 0.074941368 0.22970232
vt 0.82385469 0.23979203
vt 0.92505863 -0.22970232
vt 0.90804372 0.22089724
vt 0.82385469 0.23979203
vt 0.92505863 -0.22970232
vt 0.82385469 0.23979203
vt 0.90804372 0.22089724
vt 0.92505863 -0.22970232
vt 1.0006378 -0.20865506
vt 0.90804372 0.22089724
vt 0.92505863 -0.22970232
vt 0.90804372 0.22089724
vt 1.0006378 -0.20865506
vn -0.9985511 0.05381178 0
vn -0.9985511 0.05381178 0
vn -0.9985511 0.05381178 0
vn -0.9985511 0.05381178 0
vn -0.9985511 0.05381178 0
vn -0.9985511 0.05381178 0
vn -0.74413293 -0.66803158 0
vn -0.74413293 -0.66803158 0
vn -0.74413293 -0.66803158 0
vn -0.74413293 -0.66803158 0
vn -0.74413293 -0.66803158 0
vn -0.74413293 -0.66803158 0
vn -0.05381178 -0.9985511 0
vn -0.05381178 -0.9985511 0
vn -0.05381178 -0.9985511 0
vn -0.05381178 -0.9985511 0
vn -0.05381178 -0.9985511 0
vn -0.05381178 -0.9985511 0
vn 0.66803158 -0.74413293 0
vn 0.66803158 -0.74413293 0
vn 0.66803158 -0.74413293 0
vn 0.66803158 -0.74413293 0
vn 0.66803158 -0.74413293 0
vn 0.66803158 -0.74413293 0
vn 0.9985511 -0.05381178 0
vn 0.9985511 -0.05381178 0
vn 0.9985511 -0.05381178 0
vn 0.9985511 -0.05381178 0
vn 0.9985511 -0.05381178 0
vn 0.9985511 -0.05381178 0
vn 0.74413293 0.66803158 0
vn 0.74413293 0.66803158 0
vn 0.74413293 0.66803158 0
vn 0.74413293 0.66803158 -0
vn 0.74413293 0.66803158 -0
vn 0.74413293 0.66803158 -0
vn 0.05381178 0.9985511 0
vn 0.05381178 0.9985511 0
vn 0.05381178 0.9985511 0
vn 0.05381178 0.9985511 -0
vn 0.05381178 0.9985511 -0
vn 0.05381178 0.9985511 -0
vn -0.66803158 0.74413293 0
vn -0.66803158 0.74413293 0
vn -0.66803158 0.74413293 0
vn -0.66803158 0.74413293 0
vn -0.66803158 0.74413293 0
vn -0.66803158 0.74413293 0
vn 0 -0 -1
vn 0 -0 -1
vn 0 -0 -1
vn 0 0 1
vn 0 0 1
vn 0 0 1
vn 0 0 -1
vn 0 0 -1
vn 0 0 -1
vn 0 0 1
vn 0 0 1
vn 0 0 1
vn 0 0 -1
vn 0 0 -1
vn 0 0 -1
vn 0 0 1
vn 0 0 1
vn 0 0 1
vn 0 0 -1
vn 0 0 -1
vn 0 0 -1
vn 0 0 1
vn 0 0 1
vn 0 0 1
vn 0 0 -1
vn 0 0 -1
vn 0 0 -1
vn 0 0 1
vn 0 0 1
vn 0 0 1
vn 0 0 -1
vn 0 0 -1
vn 0 0 -1
vn -0 0 1
vn -0 0 1
vn -0 0 1
f 585/585/585 586/586/586 587/587/587
f 588/588/588 589/589/589 590/590/590
f 591/591/591 592/592/592 593/593/593
f 594/594/594 595/595/595 596/596/596
f 597/597/597 598/598/598 599/599/599
f 600/600/600 601/601/601 602/602/602
f 603/603/603 604/604/604 605/605/605
f 606/606/606 607/607/607 608/608/608
f 609/609/609 610/610/610 611/611/611
f 612/612/612 613/613/613 614/614/614
f 615/615/615 616/616/616 617/617/617
f 618/618/618 619/619/619 620/620/620
f 621/621/621 622/622/622 623/623/623
f 624/624/624 625/625/625 626/626/626
f 627/627/627 628/628/628 629/629/629
f 630/630/630 631/631/631 632/632/632
f 633/633/633 634/634/634 635/635/635
f 636/636/636 637/637/637 638/638/638
f 639/639/639 640/640/640 641/641/641
f 642/642/642 643/643/643 644/644/644
f 645/645/645 646/646/646 647/647/647
f 648/648/648 649/649/649 650/650/650
f 651/651/651 652/652/652 653/653/653
f 654/654/654 655/655/655 656/656/656
f 657/657/657 658/658/658 659/659/659
f 660/660/660 661/661/661 662/662/662
f 663/663/663 664/664/664 665/665/665
f 666/666/666 667/667/667 668/668/668
usemtl rope
v 8.8809927 0.9967527 8.8620002 0.84 0.76 0.61
v 8.892004 1.0128462 8.8732585 0.84 0.76 0.61
v 8.892004 1.0128462 8.8507419 0.84 0.76 0.61
v 9.0709927 0.8667527 8.8620002 0.84 0.76 0.61
v 9.082004 0.88284619 8.8732585 0.84 0.76 0.61
v 9.082004 0.88284619 8.8507419 0.84 0.76 0.61
v 8.8883336 1.0074817 8.8620002 0.84 0.76 0.61
v 9.0783336 0.87748169 8.8620002 0.84 0.76 0.61
vt 0 0
vt 0 0
vt 0 0
vt 0 0
vt 0 0
vt 0 0
vt 0 0
vt 0 0
vn -0.51566334 -0.69595744 0.49973449
vn 0.46187852 0.73275758 0.49973449
vn -0.026892413 0.018400072 -0.99946898
vn -0.46187852 -0.73275758 -0.49973449
vn 0.026892413 -0.018400072 0.99946898
vn 0.51566334 0.69595744 -0.49973449
vn -0.82530726 0.56468392 0
vn 0.82530726 -0.56468392 0
f 669/669/669 673/673/673 670/670/670
f 669/669/669 672/672/672 673/673/673
f 670/670/670 674/674/674 671/671/671
f 670/670/670 673/673/673 674/674/674
f 671/671/671 672/672/672 669/669/669
f 671/671/671 674/674/674 672/672/672
f 670/670/670 675/675/675 669/669/669
f 671/671/671 675/675/675 670/670/670
f 669/669/669 675/675/675 671/671/671
f 676/676/676 673/673/673 672/672/672
f 676/676/676 674/674/674 673/673/673
f 676/676/676 672/672/672 674/674/674
usemtl rope
v 8.8956745 0.8667527 8.8620002 0.84 0.76 0.61
v 8.8846631 0.88284619 8.8732585 0.84 0.76 0.61
v 8.8846631 0.88284619 8.8507419 0.84 0.76 0.61
v 9.0856745 0.9967527 8.8620002 0.84 0.76 0.61
v 9.0746631 1.0128462 8.8732585 0.84 0.76 0.61
v 9.0746631 1.0128462 8.8507419 0.84 0.76 0.61
v 8.8883336 0.87748169 8.8620002 0.84 0.76 0.61
v 9.0783336 1.0074817 8.8620002 0.84 0.76 0.61
vt 0 0
vt 0 0
vt 0 0
vt 0 0
vt 0 0
vt 0 0
vt 0 0
vt 0 0
vn 0.46187852 -0.73275758 0.49973449
vn -0.51566334 0.69595744 0.49973449
vn -0.026892413 -0.018400072 -0.99946898
vn 0.51566334 -0.69595744 -0.49973449
vn 0.026892413 0.018400072 0.99946898
vn -0.46187852 0.73275758 -0.49973449
vn -0.82530726 -0.56468392 0
vn 0.82530726 0.56468392 0
f 677/677/677 681/681/681 678/678/678
f 677/677/677 680/680/680 681/681/681
f 678/678/678 682/682/682 679/679/679
f 678/678/678 681/681/681 682/682/682
f 679/679/679 680/680/680 677/677/677
f 679/679/679 682/682/682 680/680/680
f 678/678/678 683/683/683 677/677/677
f 679/679/679 683/683/683 678/678/678
f 677/677/677 683/683/683 679/679/679
f 684/684/684 681/681/681 680/680/680
f 684/684/684 682/682/682 681/681/681
f 684/684/684 680/680/680 682/682/682
